<svg width="133" height="40" viewBox="0 0 133 40" fill="none" xmlns="http://www.w3.org/2000/svg">
<path d="M125.315 0H7.68229C3.43948 0 0 3.43948 0 7.68229V32.3177C0 36.5605 3.43948 40 7.68229 40H125.315C129.558 40 132.997 36.5605 132.997 32.3177V7.68229C132.997 3.43948 129.558 0 125.315 0Z" fill="#191919"/>
<path d="M30.6647 21.5048C30.0246 18.2516 32.8528 16.5156 33.0592 16.3927C32.6639 15.863 32.1736 15.4114 31.6132 15.061C29.9226 14.0068 27.8636 13.9085 26.6387 14.4467L26.6018 14.4626C26.0105 14.7209 25.3723 14.8543 24.727 14.8543C24.0818 14.8543 23.4435 14.7209 22.8522 14.4626L22.8153 14.4467C21.5868 13.9073 19.5314 14.0056 17.8408 15.061C16.1503 16.1163 14.5077 18.4911 15.3407 23.0467C16.1737 27.6023 19.2132 30.3739 19.2132 30.3739C19.6828 30.7406 20.2431 30.9729 20.8344 31.0463C21.4257 31.1196 22.0258 31.0312 22.5709 30.7904C23.765 30.2695 24.3093 30.1761 24.5489 30.1847C24.6717 30.1847 24.786 30.1847 24.9051 30.1847C25.1509 30.1847 25.689 30.2695 26.8832 30.7904C27.4282 31.0312 28.0283 31.1196 28.6196 31.0463C29.2109 30.9729 29.7712 30.7406 30.2409 30.3739C30.2409 30.3739 32.37 28.4328 33.558 25.1267C32.5358 24.6611 31.0824 23.6327 30.6647 21.5048Z" fill="white"/>
<path d="M24.1898 14.2763C24.1898 14.2763 23.6553 9.73053 28.7724 8.9209L28.7515 9.53519C28.7105 10.7497 28.222 11.9061 27.3799 12.7822C26.5379 13.6583 25.4017 14.1922 24.1898 14.2812V14.2763Z" fill="white"/>
<path d="M44.6282 10.3251C44.637 10.8271 44.5657 11.3273 44.4169 11.8068C44.2922 12.2068 44.0794 12.5737 43.794 12.8806C43.5104 13.1749 43.1621 13.3991 42.7768 13.5354C42.3113 13.6926 41.8219 13.7675 41.3307 13.7565H40.0174C39.9481 13.7538 39.8815 13.7293 39.827 13.6865C39.791 13.6554 39.7632 13.616 39.7461 13.5716C39.7289 13.5273 39.7229 13.4794 39.7287 13.4322V7.41217C39.7231 7.36498 39.7291 7.31713 39.7462 7.2728C39.7633 7.22847 39.7911 7.189 39.827 7.15785C39.8815 7.11505 39.9481 7.09054 40.0174 7.08782H41.4192C41.9078 7.07474 42.3946 7.15351 42.8542 7.32003C43.227 7.46195 43.563 7.68621 43.837 7.97609C44.1061 8.27005 44.3093 8.61814 44.4329 8.99703C44.5701 9.4261 44.6361 9.87473 44.6282 10.3251ZM43.9537 10.3571C43.9569 9.99187 43.9073 9.62813 43.8063 9.27715C43.7183 8.96141 43.5637 8.66817 43.353 8.41715C43.1422 8.17117 42.8767 7.97804 42.5777 7.85323C42.1973 7.70465 41.7905 7.63526 41.3823 7.64928H40.3577V13.1926H41.3885C41.7787 13.2031 42.168 13.1475 42.5397 13.028C42.8411 12.9246 43.1113 12.7462 43.3247 12.5095C43.5467 12.2545 43.708 11.9525 43.7965 11.6262C43.9079 11.2122 43.96 10.7845 43.9513 10.3558L43.9537 10.3571Z" fill="white"/>
<path d="M50.1432 11.2722C50.1467 11.619 50.0982 11.9644 49.9995 12.2968C49.9113 12.5943 49.7647 12.8712 49.5683 13.1114C49.3752 13.343 49.1313 13.5272 48.8557 13.6495C48.5415 13.7841 48.2022 13.8499 47.8606 13.8424C47.534 13.8497 47.2094 13.7912 46.9059 13.6704C46.6418 13.563 46.4069 13.3946 46.2204 13.179C46.0292 12.951 45.8885 12.6851 45.8076 12.3988C45.7125 12.0619 45.6666 11.7131 45.6712 11.3631C45.668 11.0164 45.716 10.6711 45.8137 10.3385C45.8998 10.0416 46.0452 9.76534 46.2413 9.5264C46.4344 9.29604 46.6783 9.11354 46.9538 8.9932C47.5812 8.74621 48.2776 8.73921 48.9098 8.97354C49.1734 9.07981 49.4074 9.24844 49.5916 9.46497C49.7809 9.69418 49.9214 9.95966 50.0044 10.2451C50.1004 10.5789 50.1472 10.9249 50.1432 11.2722ZM49.4946 11.3287C49.4965 11.0741 49.4714 10.82 49.4196 10.5707C49.374 10.3443 49.2865 10.1285 49.1616 9.93429C49.0404 9.74909 48.8738 9.59807 48.6775 9.49568C48.4424 9.38039 48.1825 9.3247 47.9208 9.33351C47.6716 9.32735 47.4244 9.37864 47.1983 9.4834C47.0036 9.57989 46.835 9.72191 46.7069 9.89743C46.5723 10.0861 46.4751 10.2988 46.4207 10.524C46.3576 10.7784 46.3267 11.0396 46.3285 11.3017C46.3274 11.5588 46.3533 11.8154 46.4059 12.0671C46.4503 12.2936 46.5375 12.5096 46.6627 12.7035C46.7845 12.8866 46.9511 13.0355 47.1467 13.136C47.3786 13.239 47.6292 13.293 47.8829 13.2947C48.1366 13.2964 48.3879 13.2457 48.621 13.1458C48.8159 13.0506 48.9846 12.9093 49.1125 12.7342C49.2473 12.5466 49.3445 12.3347 49.3987 12.1101C49.4632 11.8547 49.4954 11.5922 49.4946 11.3287Z" fill="white"/>
<path d="M57.6508 8.97978C57.6506 8.99974 57.6477 9.01958 57.6422 9.03875L57.625 9.11369L56.1827 13.6521C56.1773 13.6783 56.1634 13.702 56.1433 13.7196C56.1216 13.7384 56.096 13.7523 56.0684 13.7602C56.0285 13.7725 55.9872 13.7795 55.9455 13.7811C55.8952 13.7811 55.8362 13.7811 55.7674 13.7811C55.6986 13.7811 55.6335 13.7811 55.5819 13.7737C55.5403 13.7698 55.4991 13.7619 55.459 13.7503C55.4311 13.7422 55.4052 13.7284 55.3828 13.7098C55.364 13.6932 55.3503 13.6714 55.3435 13.6471L54.2624 9.96879L54.2513 9.92824L54.2415 9.96879L53.2316 13.6471C53.2255 13.6737 53.2108 13.6974 53.1898 13.7147C53.165 13.7345 53.136 13.7483 53.1051 13.7553C53.0621 13.7671 53.0181 13.7741 52.9736 13.7761C52.922 13.7761 52.8643 13.7761 52.7991 13.7761C52.734 13.7761 52.6763 13.7761 52.6235 13.7688C52.5818 13.7651 52.5407 13.7572 52.5006 13.7454C52.4728 13.7379 52.4472 13.724 52.4257 13.7049C52.4083 13.6874 52.3956 13.6659 52.3888 13.6422L50.9575 9.10387C50.947 9.08068 50.9391 9.05636 50.9342 9.03138C50.9296 9.01121 50.9272 8.99062 50.9268 8.96995C50.9263 8.94854 50.9313 8.92736 50.9415 8.90852C50.9533 8.88952 50.9717 8.87552 50.9931 8.86921C51.0233 8.85929 51.0548 8.85351 51.0865 8.85201C51.1234 8.85201 51.17 8.84587 51.2253 8.84587C51.2836 8.84497 51.3419 8.84784 51.3998 8.85447C51.4345 8.85657 51.4685 8.86446 51.5005 8.87781C51.5208 8.88573 51.5381 8.89994 51.5497 8.91835C51.5604 8.93787 51.5691 8.95846 51.5755 8.97978L52.8041 13.0501L52.8139 13.0857L52.8249 13.0501L53.943 8.97978C53.9486 8.95776 53.9582 8.93695 53.9712 8.91835C53.9844 8.90041 54.0022 8.88639 54.0228 8.87781C54.052 8.86507 54.0832 8.85719 54.1149 8.85447C54.1654 8.84787 54.2164 8.845 54.2673 8.84587C54.3154 8.845 54.3634 8.84788 54.411 8.85447C54.4431 8.85768 54.4746 8.86555 54.5044 8.87781C54.5253 8.88572 54.5434 8.89987 54.556 8.91835C54.5667 8.93787 54.5754 8.95846 54.5818 8.97978L55.7871 13.0501L55.7969 13.0857V13.0501L57.0254 8.97978C57.032 8.9579 57.042 8.93717 57.0549 8.91835C57.0683 8.89953 57.0872 8.88535 57.109 8.87781C57.1408 8.86489 57.1743 8.85702 57.2085 8.85447C57.2643 8.84783 57.3206 8.84496 57.3768 8.84587C57.4215 8.8456 57.4662 8.84764 57.5107 8.85201C57.5392 8.85343 57.5671 8.8601 57.5931 8.87167C57.6107 8.87967 57.6251 8.89357 57.6336 8.91098C57.6455 8.93193 57.6514 8.95571 57.6508 8.97978Z" fill="white"/>
<path d="M62.6205 13.6521C62.6209 13.6721 62.6153 13.6917 62.6045 13.7086C62.5929 13.7273 62.5757 13.7419 62.5553 13.7504C62.5257 13.7624 62.4948 13.771 62.4632 13.7762C62.4144 13.7832 62.3651 13.7865 62.3158 13.786C62.2652 13.7865 62.2147 13.7832 62.1647 13.7762C62.1327 13.771 62.1014 13.7623 62.0713 13.7504C62.0515 13.7411 62.0345 13.7266 62.0222 13.7086C62.0123 13.6914 62.0072 13.6719 62.0074 13.6521V10.8853C62.0129 10.6492 61.9902 10.4133 61.9398 10.1826C61.9017 10.0173 61.8339 9.86036 61.7396 9.71939C61.6524 9.59253 61.5344 9.48982 61.3968 9.42085C61.2439 9.34642 61.0753 9.31017 60.9054 9.31519C60.6477 9.32244 60.3989 9.41055 60.194 9.56705C59.9124 9.77738 59.6611 10.0254 59.4471 10.3042V13.6472C59.4475 13.6672 59.4419 13.6868 59.4311 13.7037C59.4197 13.7221 59.403 13.7366 59.3832 13.7454C59.353 13.7573 59.3217 13.7659 59.2898 13.7712C59.2394 13.7784 59.1884 13.7817 59.1375 13.7811C59.0886 13.7815 59.0397 13.7782 58.9912 13.7712C58.9586 13.7657 58.9265 13.757 58.8954 13.7454C58.8752 13.7374 58.8583 13.7226 58.8475 13.7037C58.8386 13.6862 58.8339 13.6668 58.834 13.6472V8.98962C58.8339 8.96997 58.8386 8.95059 58.8475 8.9331C58.8582 8.9138 58.8751 8.89865 58.8954 8.89011C58.9241 8.87651 58.9548 8.86779 58.9864 8.8643C59.0331 8.85766 59.0804 8.85479 59.1276 8.8557C59.1757 8.8548 59.2238 8.85767 59.2714 8.8643C59.3023 8.86704 59.3323 8.8758 59.3598 8.89011C59.3784 8.89946 59.3935 8.91453 59.4028 8.9331C59.4118 8.95059 59.4164 8.96997 59.4164 8.98962V9.64936C59.6384 9.38819 59.905 9.16855 60.2039 9.00068C60.4397 8.87226 60.7032 8.80311 60.9717 8.79919C61.2378 8.79086 61.5022 8.84383 61.7445 8.95399C61.9453 9.04961 62.1195 9.19305 62.2519 9.37171C62.3852 9.55562 62.4801 9.76455 62.5308 9.986C62.5919 10.2631 62.6203 10.5463 62.6155 10.83L62.6205 13.6521Z" fill="white"/>
<path d="M64.9334 13.6516C64.9335 13.6726 64.9274 13.6932 64.9158 13.7107C64.9042 13.7282 64.8877 13.7419 64.8683 13.7499C64.8386 13.7619 64.8077 13.7706 64.7761 13.7757C64.7257 13.7828 64.6748 13.7861 64.6238 13.7856C64.5745 13.786 64.5252 13.7827 64.4764 13.7757C64.4441 13.7704 64.4124 13.7617 64.3818 13.7499C64.361 13.7422 64.3436 13.7274 64.3326 13.7082C64.3241 13.6906 64.3199 13.6712 64.3203 13.6516V6.70772C64.3199 6.68818 64.3241 6.6688 64.3326 6.65121C64.3437 6.63148 64.361 6.61594 64.3818 6.60698C64.4116 6.59293 64.4436 6.5842 64.4764 6.58118C64.5253 6.57579 64.5746 6.57333 64.6238 6.57381C64.6747 6.57325 64.7256 6.57571 64.7761 6.58118C64.8082 6.58399 64.8394 6.59274 64.8683 6.60698C64.8884 6.61696 64.9054 6.63225 64.9174 6.65121C64.9277 6.66829 64.9332 6.6878 64.9334 6.70772V13.6516Z" fill="white"/>
<path d="M70.7761 11.2721C70.7791 11.619 70.7302 11.9644 70.6311 12.2968C70.5434 12.5942 70.3973 12.8712 70.2011 13.1113C70.0076 13.3431 69.7634 13.5273 69.4873 13.6494C69.1736 13.7841 68.8347 13.8498 68.4934 13.8423C68.1664 13.8496 67.8414 13.7911 67.5375 13.6703C67.2739 13.5626 67.0395 13.3943 66.8532 13.1789C66.6616 12.9512 66.5209 12.6852 66.4404 12.3987C66.3453 12.0619 66.2994 11.7131 66.304 11.3631C66.3004 11.0164 66.348 10.6711 66.4453 10.3384C66.5314 10.0416 66.6768 9.76528 66.8729 9.52634C67.0665 9.29596 67.3108 9.11347 67.5867 8.99313C68.2136 8.74623 68.9096 8.73923 69.5413 8.97348C69.8056 9.0794 70.04 9.24807 70.2244 9.46491C70.4138 9.6939 70.5539 9.95948 70.636 10.2451C70.733 10.5787 70.7802 10.9248 70.7761 11.2721ZM70.1261 11.3287C70.1272 11.0744 70.1012 10.8207 70.0487 10.5719C70.0035 10.3456 69.9165 10.1297 69.792 9.93545C69.6708 9.75025 69.5041 9.59924 69.3079 9.49685C69.0724 9.38136 68.812 9.32567 68.5499 9.33468C68.3012 9.32866 68.0544 9.37995 67.8287 9.48457C67.6335 9.58023 67.4647 9.7224 67.3373 9.89859C67.2027 10.0872 67.1055 10.2999 67.051 10.5252C66.9869 10.7794 66.9555 11.0407 66.9576 11.3029C66.9565 11.56 66.9825 11.8165 67.035 12.0683C67.0804 12.2947 67.1679 12.5106 67.293 12.7047C67.4149 12.8878 67.5815 13.0366 67.7771 13.1371C68.0089 13.2401 68.2595 13.2942 68.5132 13.2959C68.7669 13.2976 69.0182 13.2469 69.2514 13.147C69.4481 13.052 69.6188 12.9108 69.749 12.7354C69.8833 12.5475 69.9805 12.3357 70.0352 12.1113C70.0982 11.8552 70.1287 11.5923 70.1261 11.3287Z" fill="white"/>
<path d="M75.4178 13.6522C75.4187 13.6673 75.4161 13.6824 75.4101 13.6963C75.4041 13.7101 75.395 13.7224 75.3834 13.7321C75.3582 13.7529 75.3282 13.7673 75.2961 13.7738C75.248 13.7833 75.1989 13.7875 75.1499 13.7861C75.0997 13.787 75.0494 13.7829 75 13.7738C74.9651 13.7682 74.9321 13.7538 74.9042 13.7321C74.8929 13.7222 74.8841 13.7098 74.8784 13.696C74.8726 13.6821 74.8701 13.6672 74.871 13.6522V13.1325C74.6749 13.3492 74.4399 13.5272 74.1781 13.6571C73.9344 13.7791 73.6656 13.8426 73.393 13.8426C73.1703 13.8456 72.9486 13.8137 72.7358 13.748C72.5551 13.6915 72.3879 13.5987 72.2443 13.4753C72.1105 13.3562 72.0047 13.2089 71.9347 13.0441C71.8602 12.8647 71.8234 12.6719 71.8266 12.4777C71.8207 12.2436 71.8758 12.012 71.9863 11.8056C72.0963 11.6122 72.252 11.4485 72.4397 11.329C72.6564 11.1935 72.895 11.0966 73.1449 11.0427C73.4463 10.9771 73.7541 10.9453 74.0626 10.9481H74.7998V10.5464C74.8024 10.3683 74.7813 10.1906 74.7371 10.0181C74.702 9.87612 74.6333 9.74467 74.5368 9.63475C74.4383 9.52776 74.3139 9.44782 74.1757 9.40255C74.001 9.34691 73.8183 9.32075 73.6351 9.32515C73.4469 9.32244 73.2593 9.34769 73.0785 9.4001C72.9299 9.44349 72.7853 9.49939 72.6461 9.56718C72.5232 9.62861 72.42 9.69004 72.3389 9.73427C72.2884 9.77256 72.2294 9.79825 72.1669 9.80921C72.1476 9.80927 72.1285 9.80594 72.1104 9.79938C72.0919 9.79127 72.0764 9.77751 72.0662 9.76007C72.0528 9.73831 72.0441 9.71407 72.0404 9.68881C72.0351 9.65385 72.0326 9.61851 72.033 9.58315C72.0314 9.52498 72.0367 9.46682 72.049 9.40992C72.063 9.36029 72.0907 9.31559 72.1289 9.28092C72.1975 9.22005 72.2745 9.16918 72.3574 9.12981C72.479 9.06588 72.6056 9.01165 72.7358 8.96764C72.8863 8.91466 73.0408 8.87359 73.1977 8.84478C73.3597 8.81418 73.5242 8.79855 73.6891 8.79809C73.9632 8.79139 74.2365 8.83085 74.4976 8.91481C74.6997 8.98028 74.8827 9.09415 75.0307 9.24652C75.1709 9.39708 75.271 9.58042 75.3219 9.77973C75.3838 10.0142 75.4136 10.256 75.4104 10.4984L75.4178 13.6522ZM74.8035 11.453H73.9533C73.7348 11.45 73.5167 11.4722 73.3033 11.5194C73.1383 11.5563 72.9814 11.6229 72.8402 11.716C72.7233 11.7933 72.6285 11.8995 72.565 12.0243C72.5027 12.1529 72.4716 12.2943 72.4741 12.4371C72.4688 12.556 72.4889 12.6747 72.5329 12.7852C72.577 12.8958 72.644 12.9957 72.7296 13.0785C72.928 13.251 73.1859 13.3392 73.4483 13.3242C73.6886 13.3252 73.9244 13.2601 74.1302 13.1362C74.3815 12.9766 74.6083 12.7812 74.8035 12.5563V11.453Z" fill="white"/>
<path d="M80.8769 13.6517C80.8778 13.6732 80.8736 13.6947 80.8646 13.7143C80.854 13.7326 80.8376 13.7469 80.818 13.7549C80.7909 13.7665 80.7624 13.7744 80.7332 13.7782C80.6904 13.7837 80.6473 13.7861 80.6042 13.7856C80.5586 13.7862 80.5131 13.7837 80.4678 13.7782C80.4378 13.7745 80.4085 13.7667 80.3806 13.7549C80.3603 13.7459 80.3426 13.7319 80.329 13.7143C80.3163 13.696 80.3098 13.674 80.3106 13.6517V12.9821C80.0879 13.2301 79.829 13.443 79.5427 13.6136C79.2814 13.7647 78.9846 13.8436 78.6827 13.8421C78.3841 13.851 78.0882 13.7837 77.8227 13.6468C77.5891 13.5196 77.3901 13.3374 77.2428 13.116C77.0867 12.8766 76.976 12.6105 76.916 12.331C76.8458 12.0172 76.8112 11.6966 76.8128 11.3751C76.8084 11.0147 76.8518 10.6553 76.9418 10.3063C77.0156 10.0137 77.1449 9.73799 77.3227 9.49419C77.4865 9.27556 77.7 9.0991 77.9455 8.97941C78.2147 8.85451 78.5089 8.79274 78.8055 8.79881C79.0748 8.79594 79.3405 8.86056 79.5783 8.98678C79.8369 9.13248 80.0697 9.31967 80.2676 9.54087V6.73357C80.2675 6.71393 80.2721 6.69455 80.2811 6.67706C80.2917 6.65752 80.3092 6.64264 80.3302 6.63529C80.3608 6.6235 80.3925 6.61485 80.4248 6.60949C80.4737 6.60247 80.5229 6.59918 80.5723 6.59966C80.6232 6.59916 80.6741 6.60245 80.7246 6.60949C80.7562 6.61463 80.7871 6.62329 80.8167 6.63529C80.8362 6.64311 80.8528 6.65674 80.8642 6.67433C80.8757 6.69192 80.8814 6.71261 80.8806 6.73357L80.8769 13.6517ZM80.2627 10.2878C80.0506 10.0168 79.8026 9.77581 79.5255 9.57159C79.3067 9.41409 79.0444 9.32825 78.7748 9.32587C78.56 9.3198 78.3485 9.37891 78.1679 9.49541C77.9978 9.61127 77.8565 9.7647 77.7551 9.94384C77.6455 10.1402 77.5672 10.3524 77.5229 10.5729C77.4752 10.8066 77.4513 11.0445 77.4517 11.283C77.4514 11.5353 77.472 11.7872 77.5131 12.0361C77.5492 12.2628 77.6205 12.4825 77.7244 12.6873C77.8172 12.8702 77.9535 13.0275 78.1213 13.1455C78.3031 13.2656 78.5178 13.3261 78.7355 13.3187C78.8578 13.319 78.9794 13.3016 79.0967 13.2671C79.2243 13.2277 79.3455 13.1702 79.4567 13.0964C79.5943 13.0069 79.7231 12.9044 79.8413 12.7905C79.992 12.6437 80.1336 12.4878 80.2651 12.3236L80.2627 10.2878Z" fill="white"/>
<path d="M89.1101 11.2722C89.1135 11.619 89.0651 11.9643 88.9663 12.2968C88.8782 12.594 88.732 12.8709 88.5363 13.1113C88.3427 13.3429 88.0985 13.527 87.8225 13.6495C87.5088 13.784 87.1699 13.8497 86.8286 13.8423C86.5017 13.8497 86.1766 13.7912 85.8728 13.6703C85.6088 13.5627 85.374 13.3943 85.1872 13.1789C84.9961 12.9511 84.8558 12.6852 84.7757 12.3988C84.6795 12.0621 84.6331 11.7132 84.638 11.3631C84.6348 11.0164 84.6829 10.6711 84.7806 10.3384C84.8666 10.0416 85.0121 9.7653 85.2081 9.52636C85.4018 9.29598 85.6461 9.11349 85.9219 8.99315C86.5481 8.74687 87.2431 8.73987 87.8741 8.9735C88.1378 9.07977 88.3718 9.2484 88.556 9.46493C88.7458 9.69383 88.8863 9.95941 88.9688 10.2451C89.0656 10.5787 89.1132 10.9247 89.1101 11.2722ZM88.4614 11.3287C88.4625 11.0744 88.4365 10.8207 88.384 10.5719C88.3384 10.3455 88.2509 10.1297 88.126 9.93547C88.0048 9.75027 87.8382 9.59926 87.6419 9.49687C87.4068 9.38158 87.1469 9.32589 86.8851 9.3347C86.6364 9.32855 86.3896 9.37984 86.164 9.48458C85.969 9.58075 85.8004 9.72283 85.6725 9.89861C85.5384 10.0875 85.4413 10.3001 85.3863 10.5252C85.3228 10.7812 85.2918 11.0441 85.2941 11.3078C85.293 11.5649 85.3189 11.8215 85.3715 12.0732C85.417 12.2994 85.5041 12.5152 85.6283 12.7096C85.7506 12.8927 85.9176 13.0416 86.1136 13.1421C86.3454 13.2451 86.596 13.2991 86.8497 13.3008C87.1034 13.3025 87.3547 13.2518 87.5879 13.1519C87.7823 13.0561 87.9509 12.9149 88.0793 12.7403C88.2132 12.5524 88.31 12.3405 88.3643 12.1162C88.4304 11.8589 88.463 11.5943 88.4614 11.3287Z" fill="white"/>
<path d="M94.2626 13.652C94.2633 13.673 94.2576 13.6937 94.2462 13.7113C94.2347 13.7289 94.2181 13.7425 94.1987 13.7503C94.169 13.7623 94.1381 13.771 94.1065 13.7761C94.0577 13.7831 94.0084 13.7864 93.9591 13.786C93.9082 13.7865 93.8572 13.7832 93.8068 13.7761C93.7752 13.771 93.7443 13.7623 93.7146 13.7503C93.6952 13.7425 93.6786 13.7289 93.6672 13.7113C93.6557 13.6937 93.65 13.673 93.6507 13.652V10.8853C93.6556 10.6492 93.6329 10.4134 93.5832 10.1825C93.5452 10.017 93.4769 9.85999 93.3817 9.71937C93.2952 9.5923 93.1776 9.48952 93.0401 9.42082C92.8872 9.34672 92.7186 9.31049 92.5487 9.31517C92.2913 9.32201 92.0428 9.41017 91.8386 9.56703C91.557 9.77736 91.3057 10.0254 91.0916 10.3042V13.6471C91.0918 13.6681 91.0856 13.6887 91.074 13.7062C91.0624 13.7237 91.0459 13.7374 91.0265 13.7454C90.9968 13.7574 90.9659 13.7661 90.9343 13.7712C90.8839 13.7783 90.833 13.7816 90.782 13.781C90.7331 13.7815 90.6842 13.7782 90.6358 13.7712C90.6031 13.7658 90.571 13.7572 90.54 13.7454C90.5192 13.7377 90.5018 13.7229 90.4908 13.7036C90.4823 13.6861 90.4781 13.6667 90.4785 13.6471V8.98959C90.4781 8.97005 90.4823 8.95067 90.4908 8.93308C90.5017 8.91343 90.5191 8.89822 90.54 8.89008C90.5683 8.87663 90.5986 8.86792 90.6297 8.86428C90.6769 8.85765 90.7245 8.85477 90.7722 8.85568C90.8203 8.85486 90.8683 8.85773 90.9159 8.86428C90.9465 8.86681 90.9762 8.87559 91.0032 8.89008C91.0221 8.89937 91.0376 8.91442 91.0474 8.93308C91.0564 8.95057 91.061 8.96995 91.0609 8.98959V9.64934C91.2826 9.38789 91.5493 9.1682 91.8484 9.00065C92.0843 8.87223 92.3478 8.80308 92.6163 8.79916C92.8823 8.79097 93.1467 8.84393 93.389 8.95396C93.5896 9.04992 93.7638 9.1933 93.8965 9.37168C94.0294 9.55568 94.1238 9.76461 94.1741 9.98597C94.2352 10.263 94.2637 10.5463 94.2589 10.83L94.2626 13.652Z" fill="white"/>
<path d="M100.598 13.3746C100.599 13.4334 100.593 13.492 100.579 13.5491C100.57 13.5887 100.551 13.6252 100.523 13.6548C100.49 13.6854 100.452 13.7099 100.41 13.7273C100.354 13.7516 100.296 13.7705 100.237 13.7838C100.169 13.7997 100.101 13.8116 100.031 13.8194C99.9614 13.8281 99.8908 13.8326 99.8202 13.8329C99.6203 13.8382 99.4212 13.8066 99.2329 13.7395C99.0781 13.683 98.9412 13.5863 98.8361 13.4594C98.7258 13.3197 98.6489 13.1567 98.6112 12.9827C98.5623 12.7597 98.5392 12.5317 98.5425 12.3033V9.40266H97.8471C97.824 9.40351 97.8012 9.39786 97.7812 9.38634C97.7612 9.37483 97.7449 9.35792 97.734 9.33755C97.7021 9.27851 97.6876 9.21161 97.6923 9.14466C97.6919 9.10594 97.6952 9.06728 97.7021 9.02917C97.7077 9.00003 97.7185 8.97214 97.734 8.94686C97.7454 8.92652 97.7619 8.90956 97.7819 8.89772C97.802 8.88724 97.8244 8.88177 97.8471 8.88174H98.5425V7.73794C98.542 7.71839 98.5462 7.69902 98.5547 7.68142C98.5659 7.66203 98.5832 7.6469 98.6039 7.63842C98.6342 7.62456 98.6666 7.61584 98.6997 7.61262C98.7482 7.60674 98.797 7.60387 98.8459 7.60402C98.8968 7.60373 98.9477 7.6066 98.9982 7.61262C99.0303 7.61543 99.0615 7.62418 99.0904 7.63842C99.1109 7.64728 99.128 7.66231 99.1395 7.68142C99.1502 7.69832 99.1558 7.71795 99.1555 7.73794V8.88174H100.443C100.466 8.88177 100.488 8.88724 100.508 8.89772C100.528 8.90956 100.545 8.92652 100.556 8.94686C100.572 8.97214 100.582 9.00003 100.588 9.02917C100.595 9.06728 100.598 9.10594 100.598 9.14466C100.602 9.21191 100.587 9.27902 100.554 9.33755C100.542 9.35702 100.526 9.37325 100.507 9.38467C100.488 9.39608 100.466 9.40228 100.443 9.40266H99.1555V12.2198C99.14 12.498 99.1922 12.7759 99.3079 13.0294C99.4086 13.2153 99.5929 13.3079 99.8607 13.3071C99.9364 13.3078 100.012 13.2992 100.086 13.2813C100.146 13.2663 100.205 13.2474 100.262 13.2248C100.314 13.2039 100.358 13.1854 100.394 13.1682C100.424 13.1527 100.456 13.1439 100.49 13.1424C100.506 13.1426 100.522 13.146 100.536 13.1523C100.551 13.1615 100.563 13.1753 100.57 13.1916C100.579 13.2149 100.586 13.2392 100.59 13.2641C100.596 13.3007 100.598 13.3377 100.598 13.3746Z" fill="white"/>
<path d="M105.6 13.6516C105.601 13.6726 105.595 13.6933 105.584 13.7109C105.573 13.7285 105.556 13.7421 105.537 13.7499C105.507 13.7619 105.476 13.7706 105.444 13.7757C105.396 13.7827 105.346 13.786 105.297 13.7856C105.246 13.7861 105.195 13.7828 105.145 13.7757C105.113 13.7706 105.082 13.7619 105.053 13.7499C105.033 13.7419 105.017 13.7282 105.005 13.7107C104.993 13.6932 104.987 13.6726 104.987 13.6516V10.8849C104.993 10.6489 104.97 10.413 104.921 10.1821C104.883 10.0166 104.815 9.85959 104.72 9.71897C104.633 9.5919 104.516 9.48912 104.378 9.42042C104.225 9.34632 104.057 9.31008 103.887 9.31476C103.629 9.3216 103.381 9.40977 103.176 9.56662C102.895 9.77695 102.644 10.025 102.429 10.3038V13.6467C102.43 13.6677 102.424 13.6883 102.412 13.7058C102.4 13.7233 102.384 13.737 102.364 13.745C102.335 13.757 102.304 13.7657 102.272 13.7708C102.222 13.7779 102.171 13.7812 102.12 13.7806C102.071 13.7811 102.022 13.7778 101.974 13.7708C101.941 13.7654 101.909 13.7568 101.878 13.745C101.857 13.7373 101.84 13.7225 101.829 13.7032C101.82 13.6856 101.816 13.6663 101.816 13.6467V6.70772C101.816 6.68818 101.82 6.6688 101.829 6.65121C101.84 6.63148 101.857 6.61594 101.878 6.60698C101.908 6.59294 101.941 6.58421 101.974 6.58118C102.022 6.57579 102.071 6.57333 102.12 6.57381C102.171 6.57325 102.222 6.57571 102.272 6.58118C102.304 6.58399 102.336 6.59274 102.364 6.60698C102.384 6.61696 102.402 6.63225 102.414 6.65121C102.424 6.66829 102.429 6.6878 102.429 6.70772V9.61822C102.644 9.36776 102.902 9.15766 103.191 8.99779C103.426 8.87026 103.687 8.80193 103.954 8.79876C104.22 8.79057 104.485 8.84352 104.727 8.95356C104.927 9.04952 105.102 9.1929 105.234 9.37128C105.367 9.55527 105.462 9.76421 105.512 9.98557C105.573 10.2626 105.602 10.5459 105.597 10.8296L105.6 13.6516Z" fill="white"/>
<path d="M111.103 11.0818C111.108 11.129 111.102 11.1768 111.085 11.2212C111.068 11.2655 111.04 11.305 111.004 11.3361C110.95 11.3789 110.883 11.4034 110.814 11.4061H107.636C107.633 11.6695 107.661 11.9322 107.72 12.1888C107.77 12.4068 107.865 12.6116 108 12.7895C108.135 12.9589 108.311 13.0908 108.512 13.1728C108.758 13.2689 109.02 13.3145 109.284 13.3068C109.479 13.3091 109.674 13.2901 109.865 13.2502C110.017 13.2195 110.166 13.1784 110.311 13.1274C110.434 13.0819 110.54 13.0389 110.621 13.0045C110.674 12.9748 110.733 12.9557 110.793 12.948C110.813 12.9478 110.832 12.9529 110.85 12.9628C110.868 12.9751 110.882 12.9921 110.891 13.0119C110.903 13.0389 110.911 13.0675 110.915 13.0967C110.92 13.1394 110.923 13.1826 110.922 13.2257C110.924 13.249 110.924 13.2724 110.922 13.2957C110.919 13.3165 110.915 13.337 110.908 13.3571C110.904 13.3763 110.896 13.3945 110.885 13.4112C110.874 13.4301 110.86 13.4475 110.845 13.4628C110.795 13.4988 110.741 13.529 110.685 13.5525C110.571 13.6022 110.454 13.6433 110.335 13.6753C110.169 13.7229 110.002 13.7614 109.832 13.7908C109.629 13.8262 109.424 13.8435 109.218 13.8424C108.891 13.8484 108.566 13.7934 108.26 13.6802C107.991 13.5789 107.751 13.4146 107.559 13.2011C107.361 12.9736 107.214 12.7057 107.129 12.416C107.025 12.0632 106.976 11.6966 106.982 11.3287C106.977 10.9691 107.028 10.6109 107.134 10.2673C107.224 9.97524 107.372 9.70442 107.569 9.47114C107.756 9.25495 107.99 9.08433 108.252 8.97234C108.533 8.85378 108.836 8.79479 109.141 8.79911C109.449 8.79074 109.755 8.85074 110.037 8.97479C110.275 9.08295 110.485 9.24387 110.652 9.44534C110.814 9.64837 110.934 9.88249 111.003 10.1333C111.078 10.4017 111.115 10.6791 111.114 10.9577L111.103 11.0818ZM110.469 10.9012C110.478 10.4098 110.365 10.0236 110.128 9.74265C109.892 9.46172 109.546 9.32248 109.093 9.32494C108.88 9.32081 108.67 9.3658 108.478 9.4564C108.307 9.53962 108.154 9.65808 108.031 9.80408C107.906 9.95217 107.811 10.1227 107.75 10.3066C107.684 10.4984 107.646 10.6986 107.637 10.9012H110.469Z" fill="white"/>
<path d="M58.5835 23.7166C58.4707 23.1956 58.2625 22.6999 57.9692 22.2546C57.6869 21.8306 57.3046 21.4826 56.8561 21.2411C56.3493 20.9829 55.7857 20.8562 55.2172 20.8725C54.9358 20.8712 54.6552 20.9042 54.3818 20.9708C54.1129 21.0392 53.854 21.1421 53.6115 21.2767C53.3531 21.422 53.1088 21.5911 52.8817 21.7816C52.7858 21.8603 52.6876 21.9463 52.5856 22.0384V20.8725H51.0781V33.1853H52.6814V29.3079C52.7539 29.3718 52.8252 29.4308 52.894 29.4873C53.096 29.6524 53.3132 29.798 53.5427 29.9222C53.7582 30.039 53.9877 30.1278 54.2258 30.1863C54.4672 30.2437 54.7147 30.2722 54.9629 30.2711C55.5254 30.2807 56.0827 30.1613 56.592 29.9222C57.0657 29.6943 57.4787 29.3575 57.7972 28.9393C58.134 28.4825 58.38 27.9654 58.5221 27.4159C58.6891 26.7742 58.7696 26.1132 58.7616 25.4502C58.7664 24.8675 58.7066 24.2862 58.5835 23.7166ZM56.9864 26.8127C56.9131 27.1773 56.7838 27.5283 56.603 27.8533C56.4442 28.137 56.2217 28.3801 55.9531 28.5634C55.678 28.7432 55.354 28.8337 55.0255 28.8226C54.6102 28.8183 54.2071 28.6809 53.8756 28.4307C53.4326 28.1001 53.0327 27.7154 52.6851 27.2857V23.8973C52.8891 23.6424 53.1099 23.4015 53.3461 23.1761C53.5441 22.9867 53.7592 22.816 53.9886 22.6662C54.165 22.5501 54.357 22.4596 54.5587 22.3972C54.7428 22.3443 54.9335 22.3174 55.125 22.3173C55.4551 22.3037 55.7814 22.3916 56.06 22.5692C56.3166 22.7505 56.5246 22.9923 56.6657 23.2731C56.8334 23.6073 56.9486 23.9653 57.0072 24.3346C57.0785 24.7588 57.1138 25.1883 57.1129 25.6185C57.1111 26.0196 57.0675 26.4194 56.9827 26.8114L56.9864 26.8127Z" fill="white"/>
<path d="M68.2342 23.7166C68.1203 23.1959 67.9121 22.7004 67.6199 22.2546C67.3372 21.8309 66.9551 21.4829 66.5068 21.241C65.9995 20.983 65.4356 20.8563 64.8666 20.8725C64.5856 20.8712 64.3055 20.9042 64.0324 20.9708C63.7632 21.0392 63.5039 21.142 63.2609 21.2767C63.0029 21.4226 62.7586 21.5916 62.5311 21.7816C62.4353 21.8602 62.337 21.9462 62.2363 22.0384V20.8725H60.7227V33.1853H62.3272V29.3079C62.3984 29.3718 62.4697 29.4307 62.5385 29.4872C62.7407 29.6521 62.9579 29.7977 63.1872 29.9222C63.4027 30.039 63.6323 30.1277 63.8703 30.1863C64.1118 30.2436 64.3592 30.2721 64.6074 30.2711C65.1704 30.2808 65.7281 30.1615 66.2377 29.9222C66.7111 29.6942 67.1237 29.3574 67.4417 28.9393C67.7795 28.4831 68.0256 27.9657 68.1666 27.4159C68.3357 26.7745 68.4183 26.1134 68.4123 25.4501C68.4171 24.8675 68.3574 24.2861 68.2342 23.7166ZM66.637 26.8126C66.5638 27.1772 66.4345 27.5283 66.2537 27.8532C66.0957 28.1372 65.8735 28.3803 65.605 28.5634C65.3299 28.7432 65.0059 28.8337 64.6774 28.8226C64.2621 28.8183 63.8591 28.6809 63.5275 28.4307C63.0843 28.1004 62.6843 27.7157 62.337 27.2856V23.8972C62.5406 23.6424 62.761 23.4015 62.9968 23.1761C63.195 22.987 63.4101 22.8163 63.6393 22.6662C63.816 22.5499 64.0083 22.4593 64.2106 22.3971C64.3947 22.3442 64.5854 22.3173 64.777 22.3173C65.1066 22.3036 65.4326 22.3915 65.7107 22.5691C65.9673 22.7505 66.1753 22.9923 66.3164 23.2731C66.4845 23.6072 66.6001 23.9653 66.6591 24.3346C66.7294 24.7589 66.7643 25.1884 66.7636 25.6185C66.7614 26.0196 66.7173 26.4194 66.6321 26.8114L66.637 26.8126Z" fill="white"/>
<path d="M95.6615 22.1257C95.309 21.7134 94.8629 21.3915 94.3604 21.1871C93.793 20.9643 93.1872 20.8557 92.5778 20.8676C91.9374 20.8547 91.3015 20.9769 90.7116 21.2264C90.1891 21.454 89.7265 21.7997 89.3601 22.2363C88.9928 22.6839 88.7199 23.2013 88.5579 23.7572C88.3793 24.3677 88.2915 25.001 88.2974 25.637C88.2895 26.2785 88.3743 26.9178 88.5492 27.5351C88.7012 28.076 88.9663 28.5786 89.3269 29.0094C89.6811 29.4219 90.1277 29.7448 90.6304 29.9517C91.1976 30.1775 91.804 30.2878 92.4143 30.2761C93.0531 30.2864 93.6867 30.1608 94.2732 29.9075C94.796 29.6759 95.2585 29.327 95.6246 28.8878C95.9904 28.4381 96.2643 27.9209 96.4306 27.3656C96.6119 26.7548 96.7013 26.1205 96.6959 25.4834C96.7037 24.8439 96.6171 24.2068 96.4392 23.5926C96.2833 23.0555 96.0186 22.5561 95.6615 22.1257ZM95.0263 25.5829C95.03 26.0255 94.978 26.4667 94.8715 26.8963C94.7841 27.2585 94.6276 27.6006 94.4108 27.9037C94.2074 28.1788 93.9401 28.4002 93.6319 28.5487C93.2573 28.7068 92.8544 28.7871 92.4478 28.7845C92.0413 28.782 91.6395 28.6967 91.2669 28.5339C90.9613 28.3777 90.7011 28.1454 90.5113 27.8595C90.3091 27.5454 90.1678 27.1962 90.0948 26.8299C90.0067 26.4048 89.9631 25.9716 89.9646 25.5375C89.9618 25.0982 90.0138 24.6603 90.1194 24.2339C90.2073 23.8721 90.3623 23.53 90.5764 23.2253C90.7788 22.9484 91.0464 22.7256 91.3553 22.5766C91.7296 22.4179 92.1325 22.3376 92.5391 22.3408C92.9457 22.3439 93.3473 22.4305 93.7191 22.595C94.0252 22.7545 94.2853 22.9896 94.4747 23.2781C94.6763 23.5933 94.8176 23.9432 94.8912 24.3101C94.9811 24.7284 95.0263 25.1551 95.0263 25.5829Z" fill="white"/>
<path d="M45.5453 18.2271H43.6447L39.6641 30.2524H41.2907L42.1753 26.8062H46.9618L47.8783 30.2524H49.5259L45.5453 18.2271ZM42.6851 25.3528L44.5366 20.0699L46.4323 25.3528H42.6851Z" fill="white"/>
<path d="M80.9805 25.376C80.814 25.0178 80.5828 24.6933 80.2986 24.419C80.0171 24.1489 79.702 23.916 79.3612 23.7261C79.027 23.5393 78.683 23.3575 78.3378 23.2002C77.9926 23.043 77.6609 22.8796 77.3341 22.7211C77.0377 22.5792 76.7565 22.4076 76.4949 22.2088C76.271 22.041 76.0805 21.8326 75.9335 21.5945C75.7954 21.3515 75.727 21.0752 75.7357 20.7959C75.7343 20.5858 75.7727 20.3774 75.8487 20.1816C75.9216 19.9953 76.0348 19.8274 76.1804 19.6902C76.3456 19.5394 76.5401 19.4244 76.7517 19.3523C77.0235 19.2608 77.3091 19.2172 77.5958 19.2233C77.8979 19.2203 78.1988 19.2617 78.4889 19.3462C78.7267 19.4169 78.9574 19.5095 79.1782 19.6226C79.376 19.727 79.5467 19.8229 79.6696 19.9064L80.333 18.5206C80.2073 18.4102 80.0667 18.318 79.9153 18.2466C79.7075 18.1393 79.4914 18.0489 79.2691 17.9763C79.0219 17.8946 78.7695 17.8297 78.5135 17.7822C78.2495 17.7311 77.9813 17.7052 77.7125 17.7048C77.2228 17.7002 76.7355 17.7715 76.2677 17.9161C75.8452 18.0471 75.4524 18.2596 75.1116 18.5415C74.7868 18.8169 74.5277 19.1615 74.3535 19.5501C74.1703 19.9686 74.079 20.4215 74.0857 20.8782C74.0758 21.3308 74.1643 21.7802 74.3449 22.1952C74.5106 22.5538 74.74 22.8793 75.0219 23.156C75.3005 23.4267 75.6122 23.6611 75.9494 23.8538C76.2799 24.0443 76.6239 24.2224 76.9704 24.3846C77.3169 24.5467 77.6449 24.7052 77.968 24.8637C78.2609 25.0058 78.5394 25.1757 78.7997 25.3711C79.0221 25.5392 79.2109 25.7476 79.3563 25.9854C79.4943 26.2279 79.5627 26.5038 79.5541 26.7828C79.5593 27.0685 79.5036 27.352 79.3907 27.6145C79.2882 27.8462 79.1344 28.0516 78.941 28.2153C78.7304 28.3867 78.489 28.5164 78.2297 28.5974C77.9271 28.6914 77.6116 28.7374 77.2947 28.7337C76.918 28.7406 76.5424 28.6909 76.1804 28.5863C75.8919 28.501 75.6112 28.3912 75.3413 28.2583C75.1447 28.162 74.9547 28.0529 74.7725 27.9315L74.442 29.5925C74.6654 29.7134 74.8974 29.8177 75.1361 29.9046C75.4381 30.014 75.7477 30.1011 76.0625 30.165C76.4292 30.2393 76.8026 30.276 77.1768 30.2744C77.7212 30.277 78.2626 30.1941 78.7813 30.0287C79.2549 29.8798 79.6948 29.6398 80.0762 29.3222C80.4438 29.011 80.7376 28.622 80.9363 28.1833C81.1444 27.7088 81.2483 27.1952 81.2409 26.6771C81.2506 26.2296 81.1617 25.7854 80.9805 25.376Z" fill="white"/>
<path d="M86.5128 28.6763C86.4215 28.7122 86.3279 28.7421 86.2327 28.766C86.1249 28.7918 86.0143 28.8042 85.9035 28.8028C85.412 28.8028 85.2412 28.6014 85.1589 28.4502C85.0017 28.164 84.9231 27.7278 84.9231 27.1516V22.4536H86.874V21.0137H84.9255V19.2617L83.321 19.9682V21.0137H82.4512V22.4548H83.321V27.2978C83.3153 27.7212 83.359 28.1439 83.4512 28.5571C83.5268 28.9015 83.6797 29.2241 83.8984 29.5007C84.1124 29.7592 84.3909 29.9567 84.7056 30.0732C85.0674 30.2016 85.4496 30.2628 85.8334 30.2538C85.9681 30.254 86.1027 30.2458 86.2364 30.2292C86.3682 30.2138 86.4991 30.1908 86.6283 30.1604C86.7485 30.1335 86.8658 30.0948 86.9785 30.0449L86.7327 28.5854C86.6713 28.6112 86.5988 28.6431 86.5128 28.6763Z" fill="white"/>
<path d="M102.231 20.8687H102.164C101.964 20.8681 101.765 20.892 101.572 20.9399C101.353 20.9966 101.145 21.0896 100.957 21.2151C100.733 21.369 100.526 21.5483 100.343 21.7495C100.279 21.8171 100.213 21.8933 100.144 21.9756V20.8699H98.5947V30.2525H100.198V24.1981C100.408 23.8652 100.602 23.5777 100.775 23.3467C100.927 23.1392 101.097 22.9467 101.285 22.7717C101.411 22.6533 101.555 22.5551 101.71 22.4806C101.828 22.4268 101.956 22.3987 102.085 22.3982C102.122 22.3982 102.161 22.3982 102.208 22.3982L102.489 22.4191V20.8748L102.231 20.8687Z" fill="white"/>
<path d="M110.26 28.2328C110.223 28.2475 110.185 28.2635 110.143 28.2832C110.008 28.347 109.832 28.4183 109.62 28.4969C109.375 28.5847 109.124 28.6557 108.869 28.7095C108.551 28.7753 108.226 28.8066 107.901 28.8028C107.472 28.8153 107.044 28.7422 106.643 28.5878C106.332 28.46 106.059 28.2549 105.849 27.992C105.634 27.7085 105.482 27.3822 105.403 27.0349C105.322 26.689 105.276 26.3359 105.266 25.9808H110.594C110.772 25.9779 110.944 25.918 111.086 25.81C111.274 25.6773 111.368 25.4537 111.368 25.1478V24.9304C111.37 24.4156 111.301 23.903 111.164 23.4069C111.033 22.9318 110.806 22.4884 110.498 22.1034C110.183 21.7183 109.784 21.4096 109.332 21.2004C108.8 20.9665 108.223 20.8528 107.642 20.8675C107.069 20.8605 106.501 20.9713 105.973 21.193C105.475 21.4074 105.032 21.7316 104.677 22.1415C104.307 22.5793 104.029 23.0869 103.859 23.6342C103.665 24.2652 103.57 24.9226 103.579 25.5827C103.568 26.2564 103.659 26.9278 103.849 27.5743C104.012 28.1199 104.288 28.6246 104.661 29.0547C105.028 29.4599 105.485 29.7727 105.996 29.9675C106.566 30.1781 107.17 30.281 107.778 30.271C108.157 30.2728 108.535 30.2411 108.909 30.1764C109.216 30.1226 109.52 30.052 109.82 29.9651C109.988 29.9147 110.136 29.8656 110.264 29.8152L110.26 28.2328ZM105.443 23.8676C105.541 23.5755 105.692 23.3042 105.89 23.0678C106.093 22.8242 106.35 22.63 106.639 22.4999C106.929 22.3699 107.245 22.3074 107.562 22.3172C108.286 22.3172 108.816 22.5273 109.185 22.9597C109.517 23.3492 109.696 23.8885 109.719 24.5679H105.282C105.311 24.3295 105.365 24.0948 105.443 23.8676Z" fill="white"/>
</svg>
