<svg width="83" height="76" viewBox="0 0 83 76" fill="none" xmlns="http://www.w3.org/2000/svg">
<path d="M72.4342 13.0947C72.547 12.4137 72.6429 11.7271 72.7783 11.0516C72.8043 10.6936 72.9727 10.3603 73.2465 10.1249C73.5203 9.8895 73.8773 9.7711 74.2392 9.79566C74.4331 9.7863 74.6268 9.81682 74.8082 9.88531C74.9896 9.95379 75.1547 10.0588 75.293 10.1936C75.4314 10.3284 75.54 10.4901 75.612 10.6685C75.6839 10.847 75.7178 11.0382 75.7113 11.2303C75.6865 13.4423 75.4198 15.6452 74.916 17.8005C74.713 18.7773 73.8274 19.0732 72.8742 18.9671C71.0579 18.755 69.2417 18.5429 67.4368 18.2694C66.4666 18.1242 65.6149 17.6553 65.7108 16.5277C65.8067 15.4001 66.7204 15.1769 67.7357 15.2159C68.1136 15.2159 68.6325 15.456 68.8638 15.015C69.0951 14.574 68.5818 14.306 68.2998 14.0437C62.366 8.2215 55.3267 4.63217 47.0014 3.57156C39.5581 2.62856 32.0032 4.0153 25.3967 7.53722C18.7901 11.0591 13.4633 16.5396 10.1637 23.2096C9.99506 23.5761 9.78503 23.9226 9.53758 24.2423C9.32552 24.5643 8.99675 24.7936 8.619 24.8829C8.24124 24.9722 7.84326 24.9147 7.50703 24.7223C7.33025 24.6446 7.17089 24.5328 7.03829 24.3934C6.90569 24.254 6.8025 24.0899 6.73475 23.9106C6.66701 23.7313 6.63605 23.5404 6.64372 23.3491C6.65139 23.1578 6.69752 22.9699 6.77941 22.7965C7.16814 21.8131 7.63395 20.8612 8.1726 19.9496C15.2175 8.1266 25.579 1.28288 39.4545 0.149704C52.106 -0.888576 62.7608 3.49899 71.5205 12.5309C71.7109 12.7694 71.8807 13.0234 72.0281 13.2901L72.4342 13.0947Z" fill="#1F1F1F"/>
<path d="M42.1399 76.0004C28.4562 75.4086 17.3219 69.6032 9.70731 57.6127C9.3576 57.0545 9.05866 56.4963 8.76536 55.8879C8.58077 55.578 8.52581 55.2091 8.61222 54.8597C8.69863 54.5104 8.91955 54.2083 9.22787 54.0178C9.37697 53.8976 9.5486 53.8077 9.73288 53.7533C9.91717 53.6989 10.1105 53.6811 10.3018 53.7008C10.493 53.7205 10.6785 53.7774 10.8475 53.8682C11.0165 53.959 11.1657 54.0819 11.2866 54.23C11.6012 54.5651 11.8687 54.9406 12.0819 55.3464C22.7988 73.9796 47.566 77.9485 63.8725 65.8129C67.949 62.7828 71.3048 58.9053 73.7038 54.4532C73.8956 54.096 74.0592 53.7276 74.2679 53.3759C74.7868 52.4604 75.4862 51.7961 76.603 52.3655C77.7198 52.9349 77.6408 53.8225 77.167 54.8161C74.1131 60.9909 69.3904 66.2078 63.5228 69.8879C56.1225 74.5546 49.4499 75.7213 42.1399 76.0004Z" fill="#1F1F1F"/>
<path d="M41.999 34.6807C40.5607 36.5563 39.128 38.4319 37.6784 40.2964C36.4826 41.8314 35.4843 41.8538 34.2941 40.2964C32.8445 38.4542 31.4457 36.5619 29.9848 34.6416C29.5223 35.1999 29.6915 35.7581 29.6915 36.2158C29.6915 39.5316 29.6915 42.8474 29.6633 46.1688C29.6633 47.6816 28.9244 48.6249 27.8753 48.4965C26.5385 48.3347 26.2227 47.3801 26.2227 46.2023C26.2227 40.7206 26.2227 35.2408 26.2227 29.7628C26.2227 28.8027 26.3637 27.9263 27.4297 27.569C28.4958 27.2118 29.1218 27.8928 29.6859 28.652C31.5078 31.0691 33.3635 33.4638 35.1515 35.9088C35.7663 36.7461 36.1329 36.8354 36.7929 35.9088C38.5809 33.4638 40.4648 31.0914 42.2866 28.652C42.8507 27.8928 43.4655 27.1951 44.5428 27.5077C45.6202 27.8203 45.8063 28.7301 45.8063 29.6791C45.8063 35.1571 45.8063 40.6369 45.8063 46.1186C45.8063 47.302 45.5073 48.4798 44.0296 48.4351C42.5518 48.3905 42.3769 47.2238 42.3769 46.0292C42.3769 42.2669 42.3769 38.5101 42.3769 34.7533L41.999 34.6807Z" fill="#1F1F1F"/>
<path d="M41.6664 69.441C31.2767 69.0837 22.3197 64.618 15.6583 55.748C15.3813 55.3967 15.1341 55.0232 14.9194 54.6315C14.7672 54.3637 14.7204 54.0497 14.7881 53.7498C14.8558 53.4499 15.0331 53.1854 15.286 53.0071C15.5157 52.7952 15.8181 52.6774 16.1321 52.6774C16.4461 52.6774 16.7485 52.7952 16.9782 53.0071C17.3516 53.3384 17.683 53.7133 17.9653 54.1236C29.1897 69.0335 50.0199 70.8254 63.5852 58.0311C65.1197 56.5582 66.4802 54.9177 67.6407 53.1411C67.8485 52.7953 68.0764 52.4616 68.3232 52.1419C68.8872 51.4441 69.6656 51.1427 70.4665 51.7009C71.2675 52.2591 71.0306 52.9904 70.6301 53.7049C68.8984 56.5573 66.7205 59.1197 64.1774 61.2966C57.9278 66.6555 50.6629 69.3126 41.6664 69.441Z" fill="#1F1F1F"/>
<path d="M0 46.6209C0.101528 46.3139 0.214341 45.8729 0.383555 45.4598C2.56453 40.0562 4.75302 34.6602 6.94904 29.2715C7.12804 28.6912 7.48969 28.1828 7.98124 27.8202C8.94011 27.2006 9.94411 27.5746 10.4969 28.8752C11.5234 31.2811 12.4823 33.7093 13.4581 36.132C14.7385 39.3027 16.0245 42.4677 17.288 45.6217C17.852 47.0674 17.6038 48.1169 16.5604 48.4127C15.2179 48.8035 14.4395 47.9271 14.2083 46.8665C13.6442 44.3768 12.1383 43.6791 9.80875 44.0754C9.40693 44.1372 8.99786 44.1372 8.59604 44.0754C5.91683 43.6902 3.82422 44.1368 3.22634 47.2684C3.18629 47.4834 3.10049 47.6874 2.97463 47.867C2.84876 48.0467 2.68572 48.1977 2.49633 48.3102C2.30694 48.4226 2.09553 48.4939 1.87616 48.5193C1.65679 48.5447 1.43448 48.5236 1.22398 48.4574C0.400479 48.2509 0.00564045 47.6089 0 46.6209ZM8.83294 33.6703C7.86843 36.0762 7.06184 38.0578 6.27782 40.0507C6.02964 40.6814 6.40191 40.8489 6.96032 40.8433C8.17865 40.8433 9.39135 40.8433 10.6097 40.8433C11.2865 40.8433 11.5516 40.5754 11.2922 39.9111C10.5251 37.9685 9.76362 36.0259 8.83294 33.6703Z" fill="#1F1F1F"/>
<path d="M48.1465 38.086C48.1465 35.3731 48.1465 32.6546 48.1465 29.9416C48.1465 28.027 48.6598 27.4408 50.5268 27.4129C53.6741 27.3683 56.8271 27.4129 59.9801 27.4129C61.159 27.4129 62.2363 27.8037 62.2363 29.1322C62.2363 30.4608 61.1759 30.8069 59.9801 30.8069C57.6901 30.8069 55.4057 30.8459 53.1214 30.8069C51.9933 30.7789 51.5759 31.1865 51.5928 32.2973C51.683 37.2152 51.0288 36.283 55.5129 36.3834C56.5282 36.3834 57.5491 36.3834 58.5644 36.3834C59.5797 36.3834 60.3919 36.9417 60.4201 37.9911C60.4483 39.0405 59.6868 39.6657 58.6603 39.6937C56.9681 39.7718 55.3099 39.7383 53.629 39.755C51.6661 39.755 51.6154 39.8165 51.6041 41.8205C51.6041 43.3332 51.6041 44.8404 51.6041 46.3476C51.6041 47.4975 51.2036 48.5525 49.8217 48.5079C48.4398 48.4632 48.1747 47.4193 48.1803 46.2471C48.1634 43.5174 48.1465 40.8045 48.1465 38.086Z" fill="#1F1F1F"/>
<path d="M41.2207 5.87695C42.2416 5.87695 43.1328 6.16723 43.2287 7.26691C43.3359 8.49499 42.3657 8.84665 41.3335 8.96946C34.2723 9.76917 27.6393 12.7295 22.359 17.4376C20.2125 19.3644 18.3177 21.549 16.7186 23.9408C16.4551 24.367 16.1366 24.7573 15.771 25.1019C15.5141 25.3552 15.1663 25.4974 14.8037 25.4974C14.441 25.4974 14.0932 25.3552 13.8363 25.1019C13.5669 24.8633 13.3965 24.5344 13.3579 24.1787C13.3194 23.8229 13.4155 23.4657 13.6276 23.176C14.6429 21.3807 15.8473 19.6967 17.2206 18.1521C23.1687 11.212 31.6036 6.82406 40.7525 5.91044C40.9161 5.88253 41.074 5.88812 41.2207 5.87695Z" fill="#1F1F1F"/>
<path d="M74.352 39.3313C74.352 36.9645 74.3068 34.6032 74.352 32.2419C74.3802 31.1255 73.9515 30.6845 72.8403 30.7794C72.1303 30.8213 71.4183 30.8213 70.7082 30.7794C70.49 30.7969 70.2705 30.7707 70.0627 30.7023C69.855 30.634 69.6632 30.5249 69.499 30.3817C69.3347 30.2384 69.2013 30.0639 69.1068 29.8685C69.0122 29.6731 68.9583 29.4608 68.9484 29.2443C68.9147 29.0284 68.9291 28.8078 68.9905 28.5979C69.0519 28.388 69.1588 28.1938 69.3038 28.0291C69.4488 27.8643 69.6284 27.7328 69.8301 27.6438C70.0317 27.5549 70.2506 27.5105 70.4713 27.5139C74.1217 27.3157 77.7803 27.3157 81.4307 27.5139C81.6513 27.5089 81.8703 27.5511 82.0729 27.6376C82.2755 27.7241 82.4569 27.8528 82.6046 28.0149C82.7524 28.177 82.8631 28.3688 82.9292 28.5771C82.9952 28.7854 83.0151 29.0054 82.9875 29.222C82.9254 30.2268 82.243 30.7069 81.2559 30.785C81.0528 30.785 80.8498 30.785 80.6467 30.785C77.646 30.8185 77.7588 30.3161 77.7644 33.777C77.7644 37.6845 77.7644 41.62 77.7644 45.5442C77.7644 47.6152 77.2004 48.5474 75.9821 48.5307C74.7637 48.5139 74.352 47.7213 74.352 45.5163V39.3313Z" fill="#1F1F1F"/>
<path d="M23.5883 38.0803V46.2079C23.5883 47.1736 23.374 48.0277 22.3643 48.4408C21.208 48.8929 20.1589 47.9607 20.142 46.3865C20.1082 43.4224 20.142 40.4639 20.142 37.5053C20.142 34.945 20.142 32.3847 20.142 29.8243C20.142 28.7079 20.4015 27.6696 21.7834 27.5245C22.8551 27.4128 23.5714 28.3115 23.5883 29.8187C23.5883 32.5596 23.5883 35.3227 23.5883 38.0803Z" fill="#1F1F1F"/>
<path d="M64.0244 37.9627C64.0244 35.2442 64.0244 32.5313 64.0244 29.8128C64.0244 28.6629 64.2388 27.6469 65.6545 27.5353C66.7826 27.4516 67.4651 28.328 67.4707 29.8351C67.4933 35.2684 67.4933 40.6999 67.4707 46.1294C67.4707 47.3184 67.1774 48.5074 65.7222 48.4907C64.267 48.474 64.0301 47.3296 64.0301 46.1127C64.0357 43.3942 64.0244 40.6868 64.0244 37.9627Z" fill="#1F1F1F"/>
</svg>
