<svg width="133" height="40" viewBox="0 0 133 40" fill="none" xmlns="http://www.w3.org/2000/svg">
<path d="M125.315 0H7.68229C3.43948 0 0 3.43948 0 7.68229V32.3177C0 36.5605 3.43948 40 7.68229 40H125.315C129.558 40 132.997 36.5605 132.997 32.3177V7.68229C132.997 3.43948 129.558 0 125.315 0Z" fill="#191919"/>
<path d="M30.0708 16.3239L26.4907 19.8794L15.9814 9.17972C16.2553 9.01215 16.5696 8.92235 16.8906 8.91997C17.2116 8.91759 17.5272 9.00272 17.8034 9.16621L30.0708 16.3239Z" fill="#00F076"/>
<path d="M30.1588 23.6253L17.803 30.8346C17.4676 31.0318 17.0768 31.1135 16.6905 31.0674C16.3041 31.0212 15.9436 30.8497 15.6641 30.5791L26.4903 19.8794L30.1588 23.6253Z" fill="#F73448"/>
<path d="M33.729 21.5432L30.1858 23.6097L30.1588 23.6257L26.4902 19.8797L30.0703 16.3242L30.0986 16.3402L33.729 18.4583C33.9984 18.6156 34.222 18.8409 34.3773 19.1115C34.5326 19.3821 34.6144 19.6887 34.6144 20.0007C34.6144 20.3128 34.5326 20.6194 34.3773 20.89C34.222 21.1606 33.9984 21.3858 33.729 21.5432Z" fill="#FFCA00"/>
<path d="M15.6639 30.579L15.6418 30.5582C15.4742 30.3928 15.3414 30.1955 15.2513 29.9779C15.1612 29.7604 15.1156 29.527 15.1172 29.2915V10.708C15.1156 10.4054 15.1917 10.1074 15.3381 9.84264C15.4846 9.57783 15.6967 9.35506 15.9539 9.19566L15.9809 9.17969L26.4902 19.8794L15.6639 30.579Z" fill="#00D2FF"/>
<path d="M54.8395 22.5306H49.7003V23.9545H53.3037C53.0898 24.7414 52.6243 25.4367 51.9784 25.9344C51.3324 26.4321 50.5414 26.7049 49.726 26.7111C48.9106 26.7174 48.1155 26.4568 47.462 25.969C46.8084 25.4813 46.3324 24.7932 46.1064 24.0097C45.8804 23.2262 45.9169 22.3902 46.2102 21.6294C46.5036 20.8685 47.0377 20.2245 47.7312 19.7955C48.4247 19.3665 49.2395 19.1761 50.0513 19.2534C50.8631 19.3306 51.6273 19.6712 52.2275 20.2233L53.2349 19.2158C52.3703 18.4024 51.2516 17.9119 50.0675 17.8271C48.8834 17.7424 47.7062 18.0685 46.7346 18.7506C45.7629 19.4326 45.0561 20.4288 44.7334 21.5713C44.4107 22.7137 44.4917 23.9325 44.963 25.0221C45.4342 26.1118 46.2667 27.0056 47.3201 27.5529C48.3736 28.1002 49.5836 28.2676 50.746 28.0267C51.9085 27.7858 52.9523 27.1515 53.7016 26.2306C54.4508 25.3098 54.8597 24.1588 54.8591 22.9716C54.8591 22.823 54.8517 22.6755 54.8395 22.5306Z" fill="white"/>
<path d="M58.8991 21.4644C58.2422 21.4608 57.5991 21.6522 57.0512 22.0145C56.5032 22.3767 56.0752 22.8935 55.8213 23.4993C55.5674 24.1051 55.4991 24.7727 55.625 25.4173C55.7509 26.062 56.0654 26.6548 56.5285 27.1206C56.9917 27.5863 57.5827 27.9041 58.2267 28.0336C58.8706 28.1631 59.5386 28.0985 60.1458 27.8479C60.753 27.5974 61.2721 27.1723 61.6374 26.6264C62.0028 26.0805 62.1978 25.4384 62.1978 24.7816C62.1997 23.9044 61.8534 23.0623 61.2349 22.4403C60.6164 21.8183 59.7762 21.4673 58.8991 21.4644ZM58.8991 26.7854C57.9027 26.7854 57.0943 25.9131 57.0943 24.8368C57.0943 23.7606 57.9027 22.8883 58.8991 22.8883C59.8954 22.8883 60.7051 23.7606 60.7051 24.8368C60.7051 25.9131 59.8967 26.7878 58.8991 26.7878V26.7854Z" fill="white"/>
<path d="M66.2389 21.4644C65.5821 21.4608 64.9389 21.6522 64.391 22.0145C63.8431 22.3767 63.415 22.8935 63.1611 23.4993C62.9072 24.1051 62.8389 24.7727 62.9648 25.4173C63.0907 26.062 63.4052 26.6548 63.8684 27.1206C64.3315 27.5863 64.9226 27.9041 65.5665 28.0336C66.2105 28.1631 66.8784 28.0985 67.4856 27.8479C68.0928 27.5974 68.612 27.1723 68.9773 26.6264C69.3426 26.0805 69.5376 25.4384 69.5376 24.7816C69.5396 23.9044 69.1933 23.0623 68.5747 22.4403C67.9562 21.8183 67.1161 21.4673 66.2389 21.4644ZM66.2389 26.7854C65.2413 26.7854 64.4329 25.9131 64.4329 24.8368C64.4329 23.7606 65.2413 22.8883 66.2389 22.8883C67.2365 22.8883 68.0437 23.7606 68.0437 24.8368C68.0437 25.9131 67.2377 26.7878 66.2389 26.7878V26.7854Z" fill="white"/>
<path d="M78.5528 17.813H77.1289V28.235H78.5528V17.813Z" fill="white"/>
<path d="M84.4056 25.6368C84.2607 25.9339 84.0425 26.1891 83.7716 26.3785C83.5006 26.5678 83.1859 26.685 82.8571 26.7189C82.5284 26.7529 82.1964 26.7025 81.8925 26.5724C81.5886 26.4424 81.3228 26.2371 81.1203 25.9759L85.9609 24.0851L85.886 23.8332C85.8577 23.7411 85.827 23.6489 85.7926 23.5617C85.5107 22.8403 84.9886 22.2383 84.3144 21.857C83.6403 21.4758 82.8552 21.3386 82.0917 21.4688C81.3283 21.5989 80.633 21.9883 80.1232 22.5713C79.6133 23.1544 79.3202 23.8954 79.2931 24.6694C79.266 25.4435 79.5066 26.2032 79.9744 26.8204C80.4422 27.4377 81.1086 27.8748 81.8611 28.058C82.6136 28.2412 83.4063 28.1593 84.1055 27.8261C84.8046 27.4929 85.3675 26.9288 85.6993 26.2289L85.8221 25.9623L84.5223 25.3935L84.4056 25.6368ZM83.9584 23.3393L80.7247 24.606C80.7582 24.247 80.8908 23.9045 81.1078 23.6166C81.3247 23.3286 81.6175 23.1067 81.9533 22.9757C82.289 22.8449 82.6544 22.8101 83.0088 22.8752C83.3631 22.9403 83.6923 23.1027 83.9596 23.3442L83.9584 23.3393Z" fill="white"/>
<path d="M74.9626 21.4644V22.0492C74.4782 21.6721 73.8823 21.4665 73.2684 21.4644C71.6172 21.4644 70.2793 22.9509 70.2793 24.7815C70.2793 26.6121 71.6172 28.0987 73.2684 28.0987C73.881 28.0997 74.4767 27.898 74.9626 27.5249V28.2412C74.9626 28.6503 74.6678 29.7904 73.3237 29.7904C71.9796 29.7904 71.6037 28.5889 71.6037 28.5889L70.3137 29.1909C70.3137 29.1909 70.8051 31.0853 73.4527 31.0853C74.8914 31.0853 75.6322 30.2511 76.0094 29.4882C76.2619 28.9676 76.3913 28.3959 76.3878 27.8173V21.4644H74.9626ZM73.2684 26.7878C72.3642 26.7878 71.632 25.9155 71.632 24.8393C71.632 23.763 72.3691 22.8907 73.2684 22.8907C74.1677 22.8907 74.9037 23.763 74.9037 24.8393C74.9037 25.9155 74.1714 26.7878 73.2684 26.7878Z" fill="white"/>
<path d="M92.3175 17.813H90.8936V28.235H92.3175V17.813Z" fill="white"/>
<path d="M94.3105 17.8191V19.2418C95.3069 19.2418 96.1153 20.1153 96.1153 21.1916C96.1153 22.2678 95.3069 23.1401 94.3105 23.1401V24.4534C95.1911 24.4534 96.0356 24.1036 96.6583 23.481C97.281 22.8583 97.6308 22.0138 97.6308 21.1332C97.6308 20.2526 97.281 19.4081 96.6583 18.7855C96.0356 18.1628 95.1911 17.813 94.3105 17.813V17.8191Z" fill="white"/>
<path d="M94.3107 17.813H91.9199V19.2369H94.3107V17.813Z" fill="white"/>
<path d="M94.3107 23.1353H91.9199V24.4535H94.3107V23.1353Z" fill="white"/>
<path d="M99.7735 17.813H98.3496V28.235H99.7735V17.813Z" fill="white"/>
<path d="M104.426 27.3259L104.601 27.138V28.1393H105.8V23.8392C105.807 23.4874 105.758 23.1367 105.656 22.7999C105.574 22.5332 105.421 22.2938 105.214 22.1069C104.987 21.915 104.719 21.7772 104.43 21.704C104.044 21.608 103.646 21.563 103.248 21.5701C102.995 21.5696 102.743 21.5905 102.494 21.6327C102.265 21.671 102.039 21.7247 101.818 21.7937C101.655 21.8452 101.496 21.9067 101.34 21.9779L101.416 23.1058C101.504 23.0616 101.603 23.0149 101.712 22.9657C101.908 22.8804 102.11 22.8089 102.316 22.752C102.571 22.6835 102.835 22.6504 103.1 22.6537C103.293 22.6495 103.486 22.674 103.672 22.7262C103.822 22.7683 103.958 22.8497 104.066 22.962C104.168 23.0745 104.241 23.2104 104.278 23.3576C104.32 23.5279 104.341 23.703 104.338 23.8786V24.343H103.652C103.187 24.339 102.723 24.3801 102.265 24.4658C101.919 24.5274 101.586 24.6497 101.282 24.827C101.04 24.972 100.841 25.1795 100.706 25.4278C100.572 25.6943 100.506 25.9896 100.512 26.2878C100.506 26.5646 100.559 26.8396 100.666 27.095C100.762 27.3161 100.908 27.512 101.092 27.6675C101.286 27.8271 101.51 27.9466 101.751 28.0189C102.026 28.1023 102.312 28.1437 102.6 28.1417C102.948 28.1455 103.293 28.0729 103.611 27.9292C103.919 27.7823 104.196 27.5775 104.426 27.3259ZM103.681 26.9426C103.467 27.0724 103.222 27.1405 102.972 27.1392C102.706 27.1529 102.445 27.065 102.242 26.8935C102.151 26.8086 102.079 26.705 102.032 26.5899C101.985 26.4747 101.964 26.3507 101.969 26.2264C101.967 26.0748 101.999 25.9247 102.064 25.7878C102.132 25.6523 102.236 25.5378 102.364 25.456C102.519 25.3588 102.691 25.2921 102.871 25.2595C103.108 25.2143 103.35 25.1933 103.591 25.1968H104.34V26.3591L104.316 26.3873C104.133 26.6027 103.919 26.7899 103.681 26.9426Z" fill="white"/>
<path d="M111.454 21.5762L110.413 23.9817L109.773 25.4609L109.339 24.4596L108.092 21.5762H106.542L108.564 26.2521L109.015 27.2952L107.841 30.1652H109.392L110.413 27.5692L111.188 25.7754L113.004 21.5762H111.454Z" fill="white"/>
<path d="M53.1826 13.9333C53.1832 13.9638 53.1804 13.9943 53.174 14.0242C53.17 14.0486 53.1612 14.072 53.1482 14.093C53.1379 14.1101 53.1236 14.1245 53.1065 14.1348C53.0907 14.1435 53.0729 14.1482 53.0549 14.1483H50.6383C50.5847 14.1461 50.5331 14.1272 50.4908 14.0942C50.4631 14.0701 50.4417 14.0396 50.4284 14.0054C50.4152 13.9711 50.4104 13.9342 50.4147 13.8977V9.23891C50.4103 9.20242 50.415 9.16541 50.4283 9.13114C50.4416 9.09687 50.463 9.06638 50.4908 9.04234C50.5327 9.00868 50.5845 8.98969 50.6383 8.98828H53.0192C53.0373 8.98841 53.055 8.99305 53.0708 9.0018C53.0875 9.01227 53.1014 9.0266 53.1114 9.04357C53.1228 9.06553 53.1307 9.08916 53.1347 9.1136C53.1405 9.14604 53.1433 9.17893 53.1433 9.21188C53.1433 9.24239 53.1404 9.27282 53.1347 9.3028C53.1308 9.32607 53.1229 9.3485 53.1114 9.36914C53.1014 9.38547 53.0875 9.39899 53.0708 9.40845C53.0554 9.41812 53.0375 9.42323 53.0192 9.4232H50.8975V11.2378H52.7281C52.7474 11.237 52.7666 11.2417 52.7833 11.2513C52.8 11.2608 52.8139 11.2743 52.8239 11.2906C52.8355 11.3121 52.8434 11.3353 52.8472 11.3594C52.8536 11.3914 52.8565 11.4239 52.8558 11.4565C52.8565 11.4866 52.8536 11.5167 52.8472 11.5462C52.8433 11.5679 52.8354 11.5888 52.8239 11.6076C52.8135 11.623 52.7996 11.6356 52.7833 11.6445C52.7659 11.6521 52.7471 11.6559 52.7281 11.6555H50.8975V13.7134H53.0512C53.0694 13.7134 53.0873 13.7185 53.1028 13.7281C53.1198 13.7375 53.1342 13.751 53.1446 13.7674C53.1579 13.7879 53.1667 13.8109 53.1704 13.835C53.1779 13.8672 53.1821 13.9002 53.1826 13.9333Z" fill="white"/>
<path d="M57.5316 9.21192C57.5319 9.24239 57.5295 9.27283 57.5242 9.30284C57.5199 9.3262 57.5116 9.34864 57.4996 9.36918C57.4905 9.38572 57.4769 9.39934 57.4603 9.4085C57.4449 9.41816 57.427 9.42327 57.4087 9.42324H55.8705V14.0685C55.8702 14.084 55.866 14.0992 55.8583 14.1127C55.8484 14.1273 55.8342 14.1385 55.8177 14.1447C55.7936 14.154 55.7684 14.1606 55.7428 14.1643C55.7046 14.1701 55.6659 14.173 55.6273 14.1729C55.5886 14.173 55.55 14.1701 55.5118 14.1643C55.4858 14.1606 55.4602 14.154 55.4356 14.1447C55.4198 14.1395 55.4061 14.1292 55.3968 14.1154C55.3874 14.1016 55.3829 14.0851 55.384 14.0685V9.42324H53.8459C53.8267 9.42398 53.8079 9.41883 53.7918 9.4085C53.7763 9.39842 53.7633 9.38498 53.7537 9.36918C53.7417 9.34878 53.7338 9.32625 53.7304 9.30284C53.724 9.27296 53.7212 9.24246 53.7218 9.21192C53.7211 9.17895 53.724 9.146 53.7304 9.11364C53.7338 9.08907 53.7417 9.06534 53.7537 9.04361C53.763 9.02692 53.776 9.01261 53.7918 9.00184C53.8082 8.99246 53.8269 8.98779 53.8459 8.98832H57.4087C57.4275 8.98813 57.446 8.99321 57.4621 9.00298C57.4781 9.01276 57.4912 9.02683 57.4996 9.04361C57.5115 9.06548 57.5198 9.08913 57.5242 9.11364C57.5295 9.14613 57.532 9.17901 57.5316 9.21192Z" fill="white"/>
<path d="M60.6879 14.0681C60.6876 14.0837 60.6833 14.0989 60.6756 14.1124C60.6659 14.1267 60.6522 14.1378 60.6363 14.1443C60.612 14.1534 60.5869 14.16 60.5613 14.164C60.5227 14.17 60.4837 14.1729 60.4446 14.1726C60.4059 14.1727 60.3673 14.1698 60.3291 14.164C60.3031 14.1603 60.2775 14.1537 60.2529 14.1443C60.2371 14.1392 60.2234 14.1289 60.2141 14.1151C60.2047 14.1013 60.2002 14.0848 60.2013 14.0681V9.06783C60.2009 9.05201 60.2056 9.03647 60.2149 9.0236C60.2265 9.00918 60.2417 8.99814 60.2591 8.99166C60.2834 8.98275 60.3085 8.97617 60.334 8.972C60.3706 8.9662 60.4076 8.96332 60.4446 8.9634C60.4837 8.9631 60.5227 8.96598 60.5613 8.972C60.5869 8.97601 60.612 8.98259 60.6363 8.99166C60.6522 8.99818 60.6659 9.0093 60.6756 9.0236C60.6833 9.03707 60.6876 9.05229 60.6879 9.06783V14.0681Z" fill="white"/>
<path d="M65.3212 9.2119C65.3215 9.24237 65.3191 9.2728 65.3138 9.30282C65.31 9.32632 65.3016 9.34885 65.2892 9.36916C65.28 9.38569 65.2664 9.39932 65.2499 9.40847C65.2344 9.41814 65.2165 9.42325 65.1983 9.42322H63.6589V14.0685C63.6592 14.0849 63.6544 14.1011 63.6452 14.1147C63.6359 14.1284 63.6227 14.1388 63.6073 14.1446C63.5827 14.154 63.5572 14.1606 63.5311 14.1643C63.4545 14.1758 63.3767 14.1758 63.3001 14.1643C63.2741 14.1606 63.2486 14.154 63.224 14.1446C63.2086 14.1388 63.1953 14.1284 63.1861 14.1147C63.1769 14.1011 63.1721 14.0849 63.1724 14.0685V9.42322H61.633C61.6139 9.4238 61.5951 9.41866 61.5789 9.40847C61.5634 9.3984 61.5504 9.38496 61.5408 9.36916C61.5293 9.34852 61.5215 9.32609 61.5175 9.30282C61.5112 9.27294 61.5083 9.24244 61.5089 9.2119C61.5082 9.17893 61.5111 9.14598 61.5175 9.11362C61.5215 9.08918 61.5294 9.06554 61.5408 9.04359C61.5501 9.02689 61.5631 9.01259 61.5789 9.00181C61.5954 8.99261 61.6141 8.98795 61.633 8.9883H65.1958C65.2146 8.98811 65.2331 8.99319 65.2492 9.00296C65.2653 9.01273 65.2783 9.02681 65.2867 9.04359C65.2992 9.06523 65.3075 9.08897 65.3113 9.11362C65.3174 9.14603 65.3207 9.17892 65.3212 9.2119Z" fill="white"/>
<path d="M72.1406 11.5081C72.1447 11.8858 72.0971 12.2624 71.9993 12.6273C71.9167 12.9373 71.7721 13.2274 71.5742 13.4799C71.3843 13.7169 71.1392 13.9038 70.8604 14.0242C70.2212 14.2759 69.5109 14.2799 68.8689 14.0353C68.6036 13.921 68.3706 13.7429 68.1907 13.5168C68.0044 13.2723 67.8714 12.9915 67.8001 12.6924C67.7133 12.3337 67.672 11.9655 67.6772 11.5965C67.6725 11.2233 67.7196 10.8511 67.8172 10.4908C67.8992 10.1831 68.0439 9.89577 68.2423 9.64678C68.4341 9.41259 68.6787 9.22731 68.9561 9.10621C69.2745 8.97305 69.6173 8.90818 69.9623 8.91578C70.2956 8.9075 70.627 8.96859 70.9354 9.09515C71.2008 9.20811 71.4345 9.38444 71.616 9.6087C71.8039 9.84956 71.9395 10.127 72.0141 10.4232C72.1045 10.7776 72.147 11.1424 72.1406 11.5081ZM71.6222 11.5523C71.6241 11.2634 71.5952 10.9751 71.5362 10.6923C71.4868 10.444 71.3909 10.2072 71.2536 9.99447C71.1216 9.79677 70.9409 9.6364 70.729 9.52884C70.4766 9.40833 70.1989 9.35018 69.9193 9.3593C69.6398 9.35028 69.3624 9.41108 69.1122 9.53621C68.898 9.64943 68.7146 9.81303 68.5777 10.0129C68.4352 10.2244 68.3347 10.4613 68.2817 10.7107C68.2211 10.9871 68.1911 11.2693 68.192 11.5523C68.1905 11.8459 68.218 12.1389 68.2743 12.4271C68.3208 12.6774 68.4151 12.9164 68.5519 13.131C68.6816 13.3307 68.8617 13.4926 69.0741 13.6003C69.3293 13.7198 69.6095 13.7762 69.8911 13.765C70.1748 13.7739 70.4561 13.7114 70.7093 13.5831C70.9251 13.4656 71.1086 13.2969 71.2438 13.0917C71.3839 12.8765 71.4823 12.6369 71.5337 12.3853C71.5929 12.112 71.6226 11.8332 71.6222 11.5535V11.5523Z" fill="white"/>
<path d="M77.0378 13.9136C77.0395 13.9557 77.032 13.9976 77.0157 14.0364C77.0028 14.0661 76.9835 14.0925 76.9591 14.1138C76.9378 14.1335 76.9121 14.1479 76.8842 14.1556C76.8591 14.1635 76.8331 14.1677 76.8068 14.1679H76.706C76.657 14.1686 76.6081 14.162 76.5611 14.1482C76.5162 14.1326 76.4745 14.1089 76.4382 14.0782C76.3916 14.0391 76.3503 13.9941 76.3154 13.9443C76.2657 13.8751 76.2198 13.8033 76.1778 13.7293L74.3595 10.5067C74.2698 10.3507 74.1789 10.1885 74.0867 10.0227C73.9946 9.85683 73.9073 9.69465 73.825 9.53863C73.825 9.73274 73.825 9.93054 73.825 10.1345V14.0721C73.8261 14.0887 73.8216 14.1052 73.8123 14.119C73.803 14.1328 73.7893 14.1431 73.7734 14.1482C73.7497 14.1575 73.7249 14.1641 73.6997 14.1679C73.6591 14.1741 73.618 14.177 73.5769 14.1765C73.5382 14.1766 73.4996 14.1737 73.4614 14.1679C73.4357 14.1642 73.4106 14.1576 73.3864 14.1482C73.3699 14.1421 73.3558 14.1309 73.3459 14.1163C73.3381 14.1028 73.3339 14.0876 73.3336 14.0721V9.23885C73.3293 9.20236 73.3339 9.16535 73.3472 9.13108C73.3605 9.09681 73.382 9.06632 73.4098 9.04228C73.4517 9.00862 73.5035 8.98963 73.5572 8.98822H73.7562C73.8099 8.98689 73.8636 8.99225 73.9159 9.00419C73.9577 9.01433 73.9969 9.03271 74.0314 9.05825C74.0711 9.08803 74.1055 9.12414 74.1334 9.16514C74.1725 9.22195 74.2082 9.28103 74.2403 9.34205L75.6323 11.8103C75.7207 11.9638 75.803 12.1125 75.878 12.255L76.1077 12.674C76.1814 12.8103 76.2552 12.9455 76.3289 13.0782C76.4026 13.2108 76.4738 13.346 76.5463 13.4811C76.5463 13.2575 76.5463 13.0253 76.5463 12.7833V9.08405C76.546 9.06842 76.5503 9.05304 76.5586 9.03982C76.5681 9.0248 76.5818 9.01286 76.5979 9.00542C76.6215 8.99561 76.6463 8.989 76.6716 8.98577C76.7126 8.98326 76.7536 8.98326 76.7945 8.98577C76.8317 8.98364 76.8691 8.98364 76.9063 8.98577C76.9321 8.98886 76.9573 8.99547 76.9812 9.00542C76.9979 9.01316 77.0122 9.025 77.023 9.03982C77.0326 9.05258 77.0378 9.0681 77.0378 9.08405V13.9136Z" fill="white"/>
<path d="M44.543 11.5648C44.543 12.2343 44.809 12.8765 45.2824 13.35C45.7559 13.8235 46.3981 14.0895 47.0677 14.0895C47.7373 14.0895 48.3795 13.8235 48.8529 13.35C49.3264 12.8765 49.5924 12.2343 49.5924 11.5648C49.5924 11.5291 49.5924 11.4935 49.5924 11.4579H47.1869V11.9493H49.0703L49.0297 12.0992C48.9145 12.5224 48.6655 12.897 48.3199 13.1671C47.9742 13.4372 47.5505 13.5883 47.112 13.5978C46.6735 13.6073 46.2436 13.4748 45.8866 13.22C45.5296 12.9651 45.2645 12.6017 45.131 12.1839C44.9975 11.7661 45.0027 11.3163 45.1458 10.9016C45.2889 10.487 45.5623 10.1298 45.9251 9.88323C46.2879 9.6367 46.7207 9.5141 47.1589 9.53374C47.5971 9.55337 48.0172 9.71418 48.3565 9.99217L48.7054 9.64326C48.3384 9.33044 47.8894 9.12929 47.4117 9.06358C46.9339 8.99788 46.4474 9.07038 46.0095 9.2725C45.5717 9.47462 45.2009 9.79791 44.941 10.2041C44.6811 10.6104 44.543 11.0825 44.543 11.5648Z" fill="white"/>
</svg>
