<svg width="1564" height="434" viewBox="0 0 1564 434" fill="none" xmlns="http://www.w3.org/2000/svg">
<mask id="mask0_256_1046" style="mask-type:alpha" maskUnits="userSpaceOnUse" x="0" y="0" width="1564" height="434">
<rect width="1564" height="434" fill="#D9D9D9"/>
</mask>
<g mask="url(#mask0_256_1046)">
<path d="M1660.88 429.641C1660.88 473.599 1660.88 517.558 1661 561.517C1661 565.913 1660.01 567.636 1655.59 566.792C1654.72 566.713 1653.84 566.713 1652.96 566.792C1071.02 566.792 489.065 566.845 -92.8933 566.951C-99.501 566.951 -101.052 565.474 -100.999 558.88C-100.664 512.899 -100.823 466.9 -100.823 420.902C-93.5805 420.216 -89.4927 415.925 -87.5192 409.033C-85.7571 411.107 -84.3475 413.921 -82.233 414.694C-78.9556 415.925 -74.8148 416.91 -71.6607 415.925C-66.9913 414.484 -74.2862 412.866 -72.3479 410.738L-69.0529 410.07C-67.8547 410.316 -67.2908 409.877 -67.6608 408.663C-66.7798 407.257 -65.1587 406.307 -64.3129 407.89C-61.5641 413.165 -57.441 410.334 -53.8464 409.877C-52.7892 409.736 -52.6129 405.815 -50.4985 408.364C-50.1911 408.789 -49.9823 409.276 -49.8878 409.791C-49.7933 410.306 -49.8154 410.836 -49.9521 411.342C-50.0889 411.847 -50.3371 412.316 -50.6785 412.713C-51.0199 413.111 -51.446 413.427 -51.9256 413.64C-53.5819 414.589 -56.2075 413.64 -57.0709 416.207C-54.2692 419.425 -51.45 421.359 -48.1197 416.787C-47.5311 415.95 -46.7337 415.282 -45.8066 414.847C-44.8795 414.412 -43.8547 414.226 -42.8336 414.308C-27.9442 420.233 -21.4246 419.09 -11.7157 408.839C-11.5395 408.997 -11.2927 409.121 -11.2223 409.314C-10.3236 411.881 -9.46022 414.448 -8.57919 417.033C-8.57919 416.875 -8.79058 416.629 -8.73771 416.576C-6.84645 414.536 -4.96112 412.52 -3.0816 410.527C-0.43852 412.461 1.18249 418.088 4.1075 415.275C8.63597 410.949 11.1557 418.018 14.6798 415.785C19.6312 423.592 23.4902 415.961 27.7896 414.818L28.3886 421.06C31.5251 417.139 34.5382 413.235 39.2429 412.884C41.6745 412.708 37.8509 417.244 41.6746 418.334C43.9828 417.789 43.5422 412.866 47.313 413.728L49.0751 415.697C48.2469 416.664 46.7315 417.895 48.6169 418.827C50.1323 419.565 50.8196 417.719 51.542 416.611L51.0662 416.048L51.5949 416.541C54.6433 415.574 52.5993 413.833 52.2292 412.338C51.7006 406.958 51.1543 401.595 50.6257 396.232C48.6346 391.766 49.2689 387.001 49.0398 382.341C51.8239 374.041 44.6523 365.918 48.6169 357.601L48.529 354.242L48.6169 350.725C50.2204 334.285 50.8196 317.967 42.0974 302.916C41.7996 299.763 40.6281 296.755 38.7142 294.229C35.8421 286.686 30.9965 279.284 30.4679 271.582C28.8468 248.495 17.64 228.485 11.79 206.822C7.96636 192.667 3.98417 178.688 11.6139 163.83C17.0234 153.28 20.6179 141.499 27.6485 131.933C31.6562 126.149 34.6364 119.719 36.4587 112.925C40.9167 98.6474 47.0311 84.7916 49.0222 69.8455C49.3217 67.4893 51.2778 66.5046 52.7403 65.2034C65.9204 53.3345 83.065 55.5502 90.4304 71.7095C96.4918 85.0027 101.655 99.0695 103.047 113.91C103.311 116.688 103.258 119.519 106.659 119.889C116.667 120.996 120.315 128.839 124.509 136.153C126.858 146.809 129.207 157.464 131.557 168.12C133.707 176.806 136.508 184.983 142.252 192.298C150.657 203.006 156.349 215.736 166.393 225.249C170.392 229.03 174.868 234.234 180.489 231.773C185.458 229.628 184.119 222.981 184.313 218.251C185.07 199.982 182.691 181.325 190.92 163.988C192.248 154.129 193.575 144.259 194.902 134.377C196.224 127.801 197.405 121.172 198.902 114.631C200.224 108.881 201.88 102.815 207.924 100.371C224.329 93.6888 225.456 80.2551 224.223 65.52C222.584 45.8616 226.584 40.7096 246.196 37.1225H253.244L258.442 37.5797C268.874 42.5207 276.486 49.22 273.807 62.1967C271.199 70.1621 270.953 78.233 274.653 85.7939C277.155 90.858 276.521 94.146 269.983 96.4671C273.737 97.9793 276.098 99.087 278.547 99.9838C290.635 103.958 297.806 111.255 296.996 124.97C296.52 132.795 297.19 140.69 297.348 148.55C296.574 155.631 297.173 162.794 299.11 169.65C305.172 189.308 311.216 208.984 317.383 228.625C318.228 231.316 319.145 235.149 322.669 234.779C324.424 234.485 326.025 233.601 327.208 232.274C328.39 230.947 329.083 229.256 329.171 227.482C329.999 221.117 330.298 214.699 331.18 208.351C332.942 196.043 331.18 183.576 334.968 171.567C337.118 164.058 340.254 156.726 339.99 148.708C343.285 138.738 344.06 128.206 346.756 118.13C349.082 109.338 349.628 99.4914 358.756 94.0405C370.561 90.9458 378.914 84.2994 382.579 72.2019C384.852 64.7113 387.865 57.4843 390.631 50.1344C395.759 46.477 396.693 38.2655 404.869 37.8259C408.229 37.4987 411.619 37.9794 414.755 39.2275C417.891 40.4756 420.682 42.4549 422.894 44.9999C429.326 52.5257 431.987 62.0033 431.987 71.9029C431.987 81.0112 431.44 89.926 439.264 96.9419C441.026 98.542 441.026 102.358 441.449 105.224C446.735 142.272 448.902 179.602 451.263 216.897C451.475 220.097 449.66 224.722 454.558 225.689C458.435 226.427 460.356 222.963 462.576 220.062C471.791 207.965 474.205 192.72 481.817 179.919C490.398 165.465 493.447 149.622 494.698 133.111C495.42 123.599 496.284 113.769 505.887 107.809C507.208 107 507.878 104.995 508.636 103.448C517.411 85.7821 526.162 68.1107 534.89 50.4334C537.692 44.7891 540.934 39.2149 548.317 39.7073C556.916 40.2875 564.475 42.0459 569.004 51.4356C574.907 63.7441 572.528 76.545 573.55 89.0997C574.078 95.8166 575.964 101.004 581.814 104.45C583.39 105.194 584.766 106.3 585.83 107.679C586.893 109.058 587.612 110.669 587.928 112.38C592.985 140.848 602.289 168.278 608.844 196.377C609.355 198.557 609.073 201.652 612.262 201.652C615.451 201.652 615.557 198.839 616.103 196.588C618.517 186.372 619.628 175.488 623.645 166.081C628.931 153.878 629.072 141.815 627.803 129.155C626.306 114.244 625.742 99.3685 632.226 85.1962C634.388 80.0348 634.958 74.3475 633.865 68.861C632.802 62.1474 634.21 55.2768 637.829 49.519C643.415 40.2701 648.525 30.6517 654.886 21.9303C661.635 12.6813 668.225 1.85002 682.956 6.28108C688.197 8.15599 692.546 11.9192 695.149 16.8312C701.95 29.6321 708.452 43.3648 710.056 57.2734C711.501 69.7578 714.443 78.1979 725.668 83.4202C727.13 86.4797 728.593 89.5568 730.073 92.6164C730.637 94.3747 731.218 96.1331 731.835 97.8914C732.804 103.905 735.042 109.778 734.126 116.002C731.054 136.287 734.121 157.025 742.936 175.558C744.856 179.725 745.279 184.561 746.636 188.992C748.24 194.267 749.949 199.542 751.922 204.694C752.838 207.068 754.125 209.969 757.208 209.705C760.098 209.477 760.257 206.558 760.926 204.43C764.116 194.161 767.534 183.945 770.406 173.589C774.776 157.886 784.256 143.872 786.265 127.502C787.868 114.877 791.921 102.885 795.075 90.77C795.674 87.1379 797.17 83.7119 799.427 80.8003C803.92 71.2876 812.942 69.1775 821.981 67.1202C825.682 65.3618 833.505 67.5422 830.545 59.4362C824.149 41.8526 824.025 25.1306 834.721 9.11201C845.434 0.654314 853.645 -0.224951 861.258 9.90319C871.037 22.9326 877.786 38.037 872.94 55.2865C870.508 58.0119 865.451 59.8581 866.473 63.7793C867.495 67.7004 872.817 66.6102 876.235 67.7004C880.192 68.6814 884.083 69.9147 887.882 71.3929C898.314 76.3514 906.613 85.706 906.807 95.9045C907.053 107.914 909.379 119.326 910.789 131.072C910.172 145.138 919.758 155.9 923.123 168.665C923.458 169.896 924.092 171.795 925.995 171.197C926.472 170.93 926.889 170.57 927.222 170.138C927.555 169.705 927.797 169.211 927.934 168.683C931.281 157.834 935.281 147.143 934.436 135.432C934.438 133.979 933.944 132.568 933.034 131.433C932.124 130.298 930.853 129.506 929.431 129.19C930.277 119.097 931.37 109.022 931.863 98.9112C932.356 88.8007 933.96 80.0266 943.986 74.857C945.748 73.9427 946.47 71.1291 947.686 69.1949C951.898 64.3243 952.585 58.0997 954.1 52.2619C957.501 39.0567 959.245 25.3767 966.1 13.2089C968.989 8.05692 970.505 2.28953 977.923 0.707013C989.693 -1.78985 1001.83 2.35992 1007.98 12.6287C1015.75 25.6171 1023.38 38.6816 1030.89 51.8224C1034.56 58.17 1037.64 64.7465 1036.92 72.4481C1036.65 74.1835 1036.99 75.9569 1037.87 77.4769C1047.61 89.5217 1054.45 103.289 1061.55 116.899C1063.54 120.293 1066.55 123.563 1061.04 126.764C1057.04 129.085 1057.04 133.076 1058.66 136.716C1064.32 149.569 1070.24 162.3 1076.07 175.083C1077.3 181.829 1079.47 188.369 1082.52 194.513V194.39C1083.47 199.173 1084.14 205.538 1089.39 206.03C1093.87 206.452 1094.45 199.964 1096.44 196.271L1099.08 190.996C1102.13 185.721 1104.83 180.288 1108.31 175.365C1117.41 162.546 1119.96 147.864 1121.34 132.777C1119.57 116.952 1124.19 103.764 1136.9 93.6009C1139.06 91.8426 1138.66 89.0821 1138.25 86.2687C1136.28 74.435 1134.96 62.5835 1143.34 52.2443C1145.95 47.7235 1148.82 43.361 1151.94 39.1799C1155.93 34.4499 1159.24 27.7505 1167.03 28.9813C1176.81 30.5287 1186.71 32.0937 1190.5 43.7692C1192.73 50.6443 1195.17 57.836 1199.15 63.7089C1205.07 72.5007 1205.47 83.174 1209.91 92.3878C1209.61 94.097 1209.06 95.7544 1208.29 97.311C1204.15 103.272 1205.17 106.754 1212.66 108.002C1218.51 108.969 1220.36 113.664 1221.79 118.552C1224.79 128.839 1224.42 139.652 1227.76 150.062C1233.16 166.836 1246 178.301 1254.53 192.737C1255.39 194.214 1256.56 195.867 1258.53 195.797C1261.19 195.709 1261.6 193.177 1262.05 191.366C1263.43 184.807 1265.19 178.354 1266.81 171.848C1269.44 161.421 1276.93 153.35 1279.89 143.31C1284.15 128.856 1286.6 114.016 1292.03 99.7026C1298.48 82.7169 1302.19 64.6937 1306.83 46.9519C1308.35 40.0941 1311.94 33.8661 1317.12 29.1045C1333.26 19.8731 1344.15 17.7455 1351.16 37.8963C1354.68 55.2689 1363.14 71.3051 1365.45 88.8887C1366.17 94.3396 1367.55 99.597 1375.41 99.597C1378.53 99.597 1380.52 103.712 1382.45 106.63C1389.5 117.181 1390.05 129.753 1394.42 141.129C1402.33 161.685 1416.06 179.813 1420.11 201.986C1420.34 203.199 1420.81 205.169 1422.77 204.835C1425.24 204.448 1425.64 202.109 1426.17 200.228C1429.25 189.291 1432.39 178.371 1435.19 167.382C1439.33 151.152 1441.59 134.5 1439.74 117.972C1438.26 104.854 1438.72 100.388 1450.15 93.5132C1454.29 91.3415 1457.69 88.01 1459.95 83.93C1462.59 81.5914 1461.47 78.4792 1461.5 75.701C1461.68 64.9398 1462.15 54.1259 1461.5 43.4C1460.94 33.8697 1465.52 26.4141 1470.31 19.3104C1476.65 9.83281 1492.39 10.5186 1499.74 19.3104C1506.08 26.8889 1509.06 35.927 1512.72 44.7187C1514.01 56.4294 1520.23 66.6982 1522.47 78.1275C1522.96 80.6983 1524.05 83.1208 1525.63 85.209C1527.21 87.2972 1529.25 88.9953 1531.59 90.1722C1541.41 95.8341 1549.37 103.993 1549 115.756C1547.89 150.185 1556.7 184.332 1551.58 218.831C1550.43 226.463 1552.14 233.918 1554.38 241.215C1553.57 244.501 1551.93 247.526 1549.62 250.007C1545.36 249.778 1541.48 250.112 1541.16 255.722C1531.19 289.57 1523.4 323.682 1528.41 359.465L1527.52 374.956C1527.52 379.774 1527.48 384.597 1527.4 389.427C1527.31 389.514 1527.23 389.62 1527.18 389.738C1527.13 389.856 1527.1 389.984 1527.1 390.113C1527.1 390.242 1527.13 390.369 1527.18 390.487C1527.23 390.605 1527.31 390.711 1527.4 390.798C1526.42 394.98 1526.52 399.342 1527.68 403.476C1527.97 404.496 1528.26 405.516 1528.55 406.518C1527.91 411.793 1527.49 417.068 1526.59 422.15C1525.69 427.232 1530.33 430.274 1532.58 429.183C1536.86 427.126 1542.64 429.518 1545.87 424.313C1547.17 422.203 1550.29 417.033 1552.44 424.436C1552.86 425.93 1555.21 427.953 1556.3 425.632C1559.72 418.598 1558.92 424.559 1560.32 426.458C1561.29 427.777 1563.84 427.794 1565.6 428.691C1575.14 433.65 1583.22 424.981 1592.24 425.948C1596.4 426.388 1599.15 424.893 1600.63 421.025C1603.96 427.284 1610.34 425.35 1615.52 426.933C1621.83 428.867 1627.19 426.599 1628.12 418.809C1632.24 425.561 1638.02 427.126 1644.93 427.284C1650.34 427.372 1655.84 427.53 1660.88 429.641ZM1297.08 427.671L1298.85 425.772C1300.26 426.687 1297.45 431.047 1301.84 429.482C1303.18 427.443 1306.79 425.509 1307.27 426.071C1313.45 433.685 1320.57 429.729 1327.51 428.216C1329.84 431.856 1332.22 430.098 1335.62 428.533L1328.84 426.774C1325.31 424.436 1327.07 421.64 1327.55 418.44C1331.23 393.383 1338.49 368.643 1329.98 342.83C1325.31 328.641 1326.16 313.132 1321.03 298.573C1312.36 273.956 1300.94 249.796 1302.86 222.559C1302.86 221.328 1301.74 220.009 1301.1 218.743C1296.91 215.596 1297.01 211.358 1298.09 206.892C1301.38 200.157 1305.42 193.722 1304.75 185.792C1303.6 172.129 1302.76 158.467 1301.56 144.822C1301.35 142.448 1302.92 138.58 1299.8 137.929C1296.11 137.173 1295.41 141.446 1294.81 143.925C1290.95 159.131 1283.92 173.355 1274.18 185.668C1266.23 195.849 1261.61 206.013 1272.96 216.862C1272.36 221.551 1271.77 226.24 1271.2 230.929C1265.77 228.08 1259.45 233.672 1254.2 229.17L1249.84 222.506C1249.75 220.519 1249.24 218.093 1251.22 216.967C1259.59 212.185 1254.92 208.65 1250.28 205.01C1227.55 190.627 1217.91 167.171 1208.91 143.152C1200.89 162.617 1203.41 181.097 1208.31 199.56C1212.33 209.125 1213.1 219.288 1213.88 229.452V238.243C1211.76 252.064 1209.07 265.727 1203.31 278.563C1203.13 279.495 1202.97 280.426 1202.8 281.358C1197.93 290.994 1193.99 300.823 1196.21 311.954C1195.53 314.079 1195.62 316.374 1196.45 318.442C1196.15 320.06 1195.69 321.713 1196.93 323.19C1195.85 327.151 1196.12 331.357 1197.7 335.146C1197.39 359.974 1195.48 384.767 1195.73 409.63C1195.87 423.398 1195.22 423.539 1209.21 426.915C1213.09 427.847 1216.61 428.674 1219.92 425.807C1227.89 437.008 1231.52 425.456 1236.56 422.467C1239.29 420.831 1243.98 420.005 1244.42 421.183C1247.27 428.621 1253.9 426.722 1259.15 427.83C1263.08 428.674 1269.1 426.986 1270.92 429.148C1274.97 434.019 1277.72 431.293 1280.26 428.99C1285.14 424.594 1289.98 428.48 1294.79 428.269L1295.37 430.573C1296.43 429.922 1297.59 429.394 1297.08 427.671ZM456.162 426.458V431.399C457.254 429.517 457.413 427.513 458.893 426.018L461.66 428.972C461.06 432.929 464.003 433.017 466.452 432.806C468.901 432.595 471.087 431.68 469.448 428.427C469.448 427.003 467.21 424.911 470.117 424.383C478.152 423.135 485.976 425.737 493.799 426.792C497.923 427.355 497.676 428.726 504.248 427.284C505.253 427.056 509.358 424.559 508.671 429.852C508.143 434.019 510.063 433.14 512.512 431.03C515.332 428.586 524.318 429.008 526.221 431.188C526.544 431.562 526.885 431.92 527.243 432.26C527.578 431.557 527.789 430.502 528.3 430.256C539.278 426.739 533.04 419.847 531.613 413.903C535.842 408.857 534.467 403.705 532.159 398.342C526.591 385.4 525.851 371.966 527.296 358.005C528.741 344.044 531.578 329.696 530.062 315.312C529.333 306.897 527.07 298.686 523.384 291.082C517.605 278.229 511.367 265.181 509.535 251.167C505.799 222.576 510.909 194.003 511.684 165.412C511.808 161.28 512.953 157.007 509.711 153.684C507.103 154.493 507.297 156.111 506.874 157.447C502.997 169.755 499.826 182.363 492.531 193.019C482.082 208.14 473.025 224.071 463.704 239.826C459.105 247.598 453.906 249.145 446.612 245.822C440.638 243.079 438.506 245.031 438.259 250.956C437.713 263.265 434.189 274.993 430.119 286.616C425.097 300.929 420.551 315.418 420.41 330.839C418.401 348.897 417.643 367.078 412.534 384.802C410.666 391.256 407.247 397.814 408.551 405.041C408.551 406.202 408.551 407.362 408.551 408.558C407.864 411.512 405.027 414.167 407.283 417.543L407.071 422.537L406.648 424.471C404.851 426.72 403.837 429.491 403.759 432.366C407.547 429.922 412.674 437.254 415.406 429.799L417.326 429.201C418.331 430.625 419.423 430.344 420.569 429.395C427.846 428.111 435.511 428.937 442.312 425.227C446.488 430.52 451.299 429.729 456.18 426.458H456.162ZM650.833 368.151C651.039 367.423 651.055 366.655 650.879 365.919C650.703 365.184 650.342 364.505 649.829 363.948L649.494 361.276C648.836 351.194 648.173 341.125 647.503 331.067C649.265 314.873 649.847 298.819 646.217 282.66C641.424 261.313 635.257 240.195 635.028 218.005C635.12 210.425 635.809 202.864 637.089 195.392C637.671 191.594 636.772 187.796 633.565 186.126C629.512 184.016 628.631 188.869 626.517 190.873C618.235 198.768 619.469 210.69 614.183 220.22C610.429 227.078 606.782 227.148 600.597 227.992C608.104 216.334 596.192 181.255 582.642 173.378C582.418 174.876 582.418 176.399 582.642 177.897C587.012 190.522 586.166 203.903 588.245 216.827C588.562 218.726 590.236 221.205 587.893 222.436C582.078 225.495 584.122 230.542 584.792 234.744C587.435 251.396 586.554 267.995 585.021 284.629C583.576 300.806 582.378 316.983 585.391 333.142C586.554 344.026 584.193 355.121 587.153 365.918L587.84 369.698C587.153 388.899 582.765 407.907 585.814 427.32C585.552 426.985 585.421 426.568 585.444 426.145C585.467 425.722 585.642 425.321 585.937 425.016C597.584 415.996 610.377 422.713 622.394 423.574C626.041 423.838 628.244 418.458 631.468 422.326C632.103 416.049 636.878 420.357 638.781 420.339C643.204 420.339 639.926 425.315 641.706 427.882C645.353 421.622 650.71 424.366 654.939 425.878C659.485 427.513 660.119 424.436 659.309 422.502C653.512 408.787 653.705 394.069 651.503 379.774L651.697 379.264L651.327 378.859C651.203 376.415 651.062 373.989 650.922 371.545L650.833 368.151ZM1439.03 206.382C1430.86 218.04 1427.25 229.786 1438.17 241.936C1438.84 242.674 1438.75 244.064 1439.02 245.154L1437.25 245.892L1435.49 246.771C1430.66 247.844 1426.01 249.04 1420.81 248.354C1412 247.158 1408.78 243.993 1412.53 236.292C1421.34 218.268 1413.78 204.975 1401.73 192.438C1400.57 187.744 1397.77 183.963 1394.95 180.13C1393.19 174.855 1389.36 170.599 1388.3 165.025C1386.42 155.091 1381.03 146.633 1376.32 137.912C1375.53 136.452 1375.14 134.202 1372.94 134.395C1370.74 134.588 1370.51 136.663 1370.19 138.386C1368.13 149.271 1365.73 160.155 1368.57 171.285C1367.99 176.803 1369.13 182.365 1371.83 187.216C1374.21 196.008 1379.53 203.516 1383.67 211.534C1384.59 213.292 1386.7 214.576 1386.24 216.809C1383.21 232.195 1383.44 248.037 1376.97 263.019C1368.36 282.923 1360.01 303.32 1362 325.81C1362.98 338.064 1362.76 350.384 1361.33 362.594C1360.06 374.428 1362.77 386.068 1366.3 397.111C1369.19 406.131 1370.16 413.675 1363.79 421.447C1362.21 423.381 1359.97 428.181 1364.99 428.937C1370.65 429.799 1377.59 430.08 1382.19 428.638C1391.27 425.79 1399.46 424.963 1408.22 427.97C1413.43 429.775 1418.87 430.881 1424.37 431.258C1431.25 431.61 1438.28 428.146 1445.69 430.713C1447.9 431.487 1451.95 431.276 1453.08 429.852C1455.1 427.302 1451.09 426.563 1449.89 424.858C1446.8 420.409 1445.08 414.308 1448.13 410.545C1452.09 405.815 1451.4 401.278 1450.82 396.654C1449.5 384.128 1449.1 371.522 1449.62 358.937C1450.01 340.685 1451.39 322.416 1450.77 304.199C1450.17 285.543 1445.75 267.133 1445.48 248.372L1446.05 213.204C1446.36 208.858 1447.85 204.678 1450.35 201.107C1453.62 196.242 1455.15 190.419 1454.7 184.578C1454.7 182.943 1455.3 180.728 1452.94 180.253C1450.58 179.778 1450.15 181.783 1449.41 183.383C1446.01 191.12 1442.55 198.798 1439.05 206.417L1439.03 206.382ZM107.54 313.642L107.188 317.018C105.003 329.203 100.897 341.16 102.835 353.838C99.2059 368.884 97.6527 384.354 98.2187 399.819C98.4478 405.094 98.0777 410.369 94.8532 414.958C88.4217 424.084 88.8622 424.506 99.7693 427.003C103.293 427.829 103.611 425.684 105.055 424.242C108.826 420.603 113.672 419.073 118.482 417.526C120.244 426.317 128.702 419.653 132.825 423.82C137.248 428.304 137.636 422.185 139.556 420.163C143.362 430.309 147.063 431.294 155.133 424.559C160.965 428.92 167.238 429.06 173.828 426.634C175.731 431.628 176.912 428.691 178.128 426.247C179.344 423.803 181.194 419.214 182.357 419.811C186.85 422.326 192.577 415.925 196.365 422.256C197.211 423.697 200.7 423.363 202.18 420.884C202.18 420.726 201.634 420.093 201.299 419.724C201.042 419.837 200.814 420.005 200.629 420.216C200.541 420.308 200.476 420.42 200.439 420.542C200.402 420.664 200.395 420.794 200.418 420.919C202.321 424.788 204.206 421.183 205.898 420.691C207.978 419.879 209.968 418.854 211.836 417.631C214.162 419.143 211.237 422.326 213.792 423.75C220.276 420.48 220.84 414.484 219.448 408.681C216.03 394.122 217.104 379.334 216.153 364.722C216.77 351.253 218.267 337.819 217.651 324.28C219.589 312.393 216.452 301.21 212.259 290.379C207.237 277.367 202.691 264.302 201.686 250.271C201.858 250.054 201.944 249.782 201.927 249.507C201.911 249.231 201.794 248.971 201.598 248.776C201.598 247.51 201.598 246.261 201.598 245.013C200.717 224.968 204.929 205.819 211.237 186.987C215.307 174.837 212.646 162.599 210.091 150.378C205.017 156.972 204.136 164.674 203.043 172.287C200.048 192.385 195.008 212.237 195.361 232.775C194.356 235.588 196.576 237.751 196.876 240.336C198.092 250.781 193.211 255.704 182.55 255.317C177.441 255.124 173.952 252.486 170.375 249.638C146.305 230.296 123.68 209.863 113.478 179.303C113.094 178.326 112.634 177.379 112.104 176.472C107.84 178.881 108.738 181.747 108.932 184.209C109.771 193.802 111.106 203.345 112.932 212.8C117.037 234.674 120.156 256.759 115.663 278.897C113.478 289.746 110.905 300.525 108.491 311.338L107.54 313.642ZM994.98 320.675C992.09 300.014 993.077 279.213 992.425 258.377C986.046 279.336 987.385 301.157 984.513 322.469C982.751 334.127 981.271 346.013 984.654 357.407C988.442 370.138 988.178 381.849 980.813 393.12C978.416 401.718 981.8 411.125 977.289 419.495C977.095 419.847 977.853 421.165 978.399 421.253C981.482 422.291 983.967 425.667 987.702 424.19C991.808 422.572 992.037 419.178 991.226 415.398C989.042 383.783 999.438 352.537 994.997 320.693L994.98 320.675ZM1496.3 317.282C1496.97 299.054 1495.92 280.804 1493.16 262.773C1489.08 267.151 1489.27 270.808 1488.28 274.026C1483.98 288.093 1485.57 302.881 1483.42 317.229L1483 320.517V322.381C1480.55 338.065 1481.48 353.908 1481.24 369.681C1481.08 378.138 1479.02 386.438 1480.05 395.019C1481.25 404.742 1482.94 414.659 1477.17 423.82C1476.09 425.973 1475.27 428.237 1474.7 430.573C1479.98 433.474 1484.5 425.016 1489.52 430.573C1489.92 431.012 1492.44 428.533 1490.91 425.983C1488.72 422.326 1489.73 418.633 1491.88 415.257C1493.74 412.242 1494.45 408.658 1493.87 405.164C1493.2 397.867 1493.69 390.51 1495.3 383.361C1499.38 361.487 1497.38 339.384 1496.32 317.299L1496.3 317.282ZM954.505 315.646C958.029 303.338 953.096 291.786 951.704 279.917C951.363 274.653 951.022 269.378 950.682 264.091C950.118 255.886 949.53 247.727 948.92 239.615C948.532 234.34 944.567 229.206 941.008 229.54C935.722 230.067 936.814 235.887 938.048 240.266C938.506 241.901 938.312 245.207 937.325 244.908C931.74 243.149 925.66 248.125 920.621 243.94C915.229 239.439 916.709 233.742 919.969 228.942C926.277 219.658 925.837 210.321 921.326 200.808C916.04 189.467 910.56 178.16 904.798 167.03C901.895 161.641 900.098 155.729 899.512 149.64C898.437 137.806 894.226 126.781 890.455 114.279C881.891 136.206 883.495 156.48 890.895 176.754C891.935 179.602 893.045 182.029 891.177 184.948C890.319 186.485 889.785 188.181 889.606 189.931C889.427 191.682 889.608 193.45 890.138 195.128C894.877 215.736 895.107 235.834 886.173 255.827C882.878 263.23 879.882 271.441 880.464 280.092C877.094 292.11 875.422 304.539 875.495 317.018C878.12 327.99 874.649 339.244 876.975 350.233C879.794 367.412 876.429 384.275 874.861 401.226C874.332 406.993 872.711 413.534 878.949 419.917C884.675 425.737 887.759 424.928 892.428 420.814C893.38 419.987 894.032 418.879 894.789 420.304C898.419 427.337 904.886 423.82 909.82 423.82C916.234 423.82 923.599 428.973 929.202 421.675C937.29 428.34 932.462 419.003 933.731 417.42C944.409 424.7 956.179 420.655 957.06 409.841C958.822 398.307 963.633 386.543 954.347 375.852C953.889 375.343 954.188 374.094 954.153 373.321C955.019 369.556 955.102 365.654 954.4 361.856C954.664 346.646 951.809 331.12 954.523 315.664L954.505 315.646ZM1110.48 201.845C1109.11 203.428 1107.75 205.028 1106.38 206.628C1104.05 209.987 1101.74 213.363 1099.33 216.704C1096.54 220.677 1095.91 224.792 1098.83 228.907C1104.12 236.221 1099.38 238.806 1093.25 240.371C1086.47 242.13 1079.8 238.912 1074.52 236.274C1071.4 234.727 1074.52 226.849 1076.83 221.961C1078.6 218.407 1079.37 214.44 1079.06 210.482C1078.75 206.524 1077.37 202.724 1075.06 199.489C1071.95 194.9 1069.14 190.1 1066.01 185.423C1057.94 173.589 1049.36 162.124 1047.51 147.178C1047.03 143.31 1044.55 139.582 1042.48 136.083C1040.95 133.481 1039.45 129.577 1035.44 130.808C1031.42 132.039 1026.98 134.166 1026.82 139.6C1026.66 145.033 1025.67 151.046 1027.14 156.198C1032.62 175.646 1035.77 195.515 1039.56 215.279C1040.81 221.82 1046.31 229.188 1036.49 234.059C1035.95 234.34 1035.75 235.606 1035.61 236.432C1032.09 258.007 1024.37 278.773 1023.49 300.823C1023.3 305.764 1019.65 310.793 1021.6 315.4C1025.13 323.787 1025.13 332.597 1025.73 341.213C1027.24 362.542 1027.19 383.835 1020.83 404.654C1019.49 408.98 1016.92 413.815 1022.19 418C1023.14 418.774 1019.17 423.891 1023.56 423.574C1030.33 423.117 1036.18 419.811 1038.24 411.582C1040.74 417.772 1045.64 418.387 1050.89 418.932C1058.64 419.723 1067.79 424.207 1073.8 421.376C1081.74 417.684 1087.89 419.319 1094.94 420.708C1097.69 421.236 1100.76 419.055 1103.31 421.64C1103.96 415.31 1111.4 415.802 1113.88 411.266C1116.03 416.541 1116.05 416.682 1121.95 414.132C1122.92 413.71 1123.29 414.431 1123.84 414.501C1133.12 415.662 1140.95 422.607 1150.89 421.288C1151.73 421.165 1151.93 422.414 1151.41 423.24C1151.27 423.486 1150.96 423.627 1150.73 423.803C1150.5 423.064 1149.85 422.045 1150.11 421.623C1152.54 417.983 1157.71 415.24 1155.04 409.841C1153.41 406.076 1152.8 401.944 1153.28 397.867C1154.29 379.51 1150.29 361.627 1148.35 343.551V332.667C1148.44 332.578 1148.51 332.468 1148.56 332.348C1148.6 332.227 1148.62 332.098 1148.61 331.969C1148.6 331.841 1148.56 331.717 1148.49 331.607C1148.42 331.496 1148.33 331.402 1148.23 331.331C1149.04 310.934 1143.19 291.891 1136.33 273.041C1134.57 261.26 1130.52 250.007 1129.97 237.874C1129.02 217.161 1135.66 197.432 1137.02 177.158C1137.66 169.495 1137.3 161.782 1135.94 154.212C1131.73 172.692 1122.15 187.814 1110.5 201.863L1110.48 201.845ZM267.746 387.352L267.851 396.32C267.851 405.112 267.763 413.903 268.01 422.555C268.169 427.671 268.433 427.654 272.961 425.385C274.724 428.902 278.635 423.627 280.573 427.548C282.706 431.786 286.247 429.764 289.243 428.515C290.705 427.9 291.251 424.576 293.084 425.719C299.974 430.027 307.057 429.975 314.599 428.146C317.947 427.355 322.052 433.21 324.977 426.141C326.863 421.622 331.603 426.141 334.439 426.405C338.616 426.88 341.946 427.794 345.241 424.647C348.324 429.377 355.813 419.636 358.245 428.832C358.738 430.748 364.095 428.832 365.293 426.528C368.253 420.814 367.954 420.532 373.733 424.295C376.429 426.054 377.927 425.948 378.438 422.537C380.482 408.47 381.821 394.298 376.552 380.495C376.447 362.911 371.407 345.591 372.376 327.867L372.042 323.999C372.5 322.24 373.169 320.482 371.795 318.811C372.751 310.646 370.846 302.401 366.403 295.478C347.02 266.36 348.782 233.689 350.544 201.072C350.756 197.045 352.747 193.124 353.91 189.15C355.054 186.5 356.031 183.781 356.835 181.009C358.95 171.918 360.941 162.81 362.738 153.649C363.267 150.976 362.456 147.776 359.513 147.336C356.166 146.844 356.641 150.519 356.201 152.488C353.928 162.722 351.937 173.044 349.857 183.312C344.148 199.454 339.479 215.754 339.637 233.127C339.796 250.499 338.21 252.047 321.065 254.508C315.409 255.317 312.431 252.873 311.568 248.266C308.449 231.527 300.626 216.844 292.397 202.285C287.111 193.054 283.41 183.435 282.829 172.569C282.582 167.856 282.512 162.458 277.543 157.007C273.772 187.726 278.371 216.334 281.913 244.925C282.012 253.744 281.107 262.545 279.217 271.16C273.772 284.734 270.776 299.03 267.851 313.237C266.195 321.273 263.552 329.608 265.878 338.101V343.569C266.477 350.04 267.064 356.487 267.64 362.911C267.5 363.124 267.435 363.378 267.454 363.632C267.473 363.886 267.576 364.127 267.746 364.318C267.746 366.164 267.852 367.993 267.887 369.839L267.746 387.352ZM818.51 334.601C821.569 310.789 818.706 286.591 810.176 264.144C806.029 253.511 803.275 242.388 801.982 231.052C800.22 213.117 797.313 194.812 804.907 177.65C808.941 169.007 811.934 159.918 813.823 150.572C816.29 137.384 810.299 126.113 807.603 113.347C806.035 114.631 805.295 114.912 805.189 115.352C799.568 139.547 793.189 163.408 780.115 185C776.15 191.82 773.06 199.11 770.917 206.699C768.891 213.451 764.961 221.064 768.644 227.57C771.728 233.004 771.234 237.487 767.957 240.758C766.027 242.732 763.544 244.079 760.834 244.622C758.123 245.164 755.312 244.878 752.768 243.8C746.936 241.549 746.178 237.206 746.742 231.949C748.68 214.224 736.275 201.599 730.478 186.618C730.387 186.271 730.225 185.947 730 185.667C729.776 185.386 729.496 185.156 729.177 184.99C728.859 184.824 728.509 184.727 728.15 184.705C727.791 184.682 727.432 184.735 727.095 184.86C726.738 184.974 726.414 185.171 726.149 185.435C725.884 185.699 725.685 186.022 725.57 186.378C725.455 186.733 725.426 187.111 725.485 187.48C725.545 187.849 725.692 188.199 725.914 188.5C731.06 194.795 728.593 202.566 729.932 209.6C732.064 220.783 732.046 232.16 727.042 243.114C718.866 260.997 714.954 280.233 710.074 299.153C706.978 311.366 706.737 324.126 709.369 336.448C709.034 341.09 708.558 345.732 708.417 350.391C707.748 371.738 704.153 392.785 701.739 413.956C701.193 418.897 703.977 418.739 707.519 421.341C712.805 425.21 712.382 417.192 715.818 419.055C722.289 422.757 729.959 423.774 737.174 421.886C739.077 421.412 743.042 423.1 744.451 421.675C751.711 414.361 761.86 426.159 768.697 417.737C769.234 417.858 769.724 418.133 770.107 418.528C775.886 427.32 785.384 422.713 791.251 421.447C800.995 419.319 809.524 417.473 819.039 421.658C821.277 422.642 827.849 422.326 826.898 417.209C825.664 411.037 827.25 404.901 825.999 398.957C821.578 377.779 819.077 356.245 818.528 334.619L818.51 334.601ZM940.938 223.034C947.739 206.189 954.805 153.455 950.893 148.585C950.666 155.973 949.039 163.252 946.1 170.037C942.312 179.761 939.387 189.836 936.374 199.929C933.96 207.912 938.277 214.558 940.955 223.051L940.938 223.034ZM31.1902 214.541C36.5902 200.856 38.4448 186.033 36.5822 171.443C36.3531 169.404 38.0447 166.168 34.8201 165.518C32.1418 164.938 31.1199 167.786 29.8336 169.703C19.5961 184.983 27.2785 199.7 31.2079 214.558L31.1902 214.541ZM557.656 362.067C557.656 350.005 561.991 337.889 557.445 325.88C555.506 337.977 553.603 350.04 557.674 362.085L557.656 362.067ZM1536.63 170.406C1535.65 167.223 1534.34 162.757 1532.88 158.344C1532.44 156.99 1531.75 155.46 1529.94 155.636C1528.12 155.812 1527.81 157.517 1527.61 158.871C1527.05 164.1 1528.1 169.376 1530.63 173.993C1531.42 175.576 1532.78 177.035 1534.78 176.279C1536.79 175.523 1536.72 173.483 1536.72 170.336L1536.63 170.406ZM676.436 394.122C678.374 387.44 680.418 380.758 676.859 374.235C676.26 380.952 671.379 387.528 676.436 394.122Z" fill="url(#paint0_linear_256_1046)" fill-opacity="0.5"/>
</g>
<defs>
<linearGradient id="paint0_linear_256_1046" x1="780" y1="0" x2="780" y2="567" gradientUnits="userSpaceOnUse">
<stop stop-color="#060708" stop-opacity="0.2"/>
<stop offset="0.515625" stop-color="#060708" stop-opacity="0"/>
</linearGradient>
</defs>
</svg>
